<svg width="520" height="410" viewBox="0 0 520 410" fill="none" xmlns="http://www.w3.org/2000/svg">
    <path d="M203 334.807C234.344 352.903 271.173 359.057 306.697 352.133C342.221 345.209 374.043 325.674 396.296 297.131C418.549 268.589 429.732 232.962 427.782 196.823C425.832 160.683 410.881 126.467 385.687 100.484C360.492 74.5008 326.752 58.5034 290.69 55.4416C254.627 52.3798 218.674 62.46 189.459 83.8234C160.244 105.187 139.739 136.393 131.724 171.686C123.71 206.98 128.726 243.982 145.848 275.868L167.874 264.04C153.605 237.469 149.425 206.634 156.104 177.223C162.783 147.811 179.87 121.806 204.216 104.003C228.561 86.2006 258.523 77.8004 288.575 80.3519C318.627 82.9035 346.743 96.2346 367.739 117.887C388.734 139.539 401.193 168.053 402.818 198.169C404.443 228.286 395.124 257.974 376.58 281.76C358.036 305.546 331.517 321.825 301.914 327.595C272.311 333.365 241.62 328.237 215.5 313.157L203 334.807Z" fill="#FFF698" stroke="#222425" stroke-width="3.40395"/>
    <path d="M209.013 338.279L221.513 316.628C226.432 319.468 231.666 321.664 237.141 323.212L225.608 345.538C219.819 343.732 214.266 341.312 209.013 338.279Z" fill="#E18DD4" stroke="#222425" stroke-width="3.40395"/>
    <path d="M145.848 275.867C162.112 302.216 185.439 324.668 213.206 340.699L225.705 319.049C202.567 305.689 183.128 286.98 169.574 265.022L145.848 275.867Z" fill="#85B0F0" stroke="#222425" stroke-width="3.40395"/>
    <path d="M192.497 214.168C190.943 214.168 189.608 213.838 188.493 213.178C187.379 212.503 186.521 211.572 185.919 210.384C185.318 209.181 185.017 207.795 185.017 206.226C185.017 204.656 185.318 203.27 185.919 202.068C186.521 200.865 187.379 199.926 188.493 199.252C189.608 198.577 190.943 198.24 192.497 198.24C194.345 198.24 195.856 198.702 197.029 199.626C198.217 200.535 198.958 201.818 199.251 203.476H196.149C195.959 202.64 195.548 201.987 194.917 201.518C194.301 201.034 193.48 200.792 192.453 200.792C191.031 200.792 189.916 201.276 189.109 202.244C188.303 203.212 187.899 204.539 187.899 206.226C187.899 207.912 188.303 209.24 189.109 210.208C189.916 211.161 191.031 211.638 192.453 211.638C193.48 211.638 194.301 211.418 194.917 210.978C195.548 210.523 195.959 209.9 196.149 209.108H199.251C198.958 210.692 198.217 211.931 197.029 212.826C195.856 213.72 194.345 214.168 192.497 214.168ZM201.678 213.904V202.992H204.186L204.45 205.038C204.846 204.334 205.381 203.776 206.056 203.366C206.745 202.94 207.552 202.728 208.476 202.728V205.698H207.684C207.068 205.698 206.518 205.793 206.034 205.984C205.55 206.174 205.169 206.504 204.89 206.974C204.626 207.443 204.494 208.096 204.494 208.932V213.904H201.678ZM211.765 218.744L214.295 213.178H213.635L209.389 202.992H212.447L215.505 210.67L218.695 202.992H221.687L214.757 218.744H211.765ZM223.528 218.744V202.992H226.036L226.344 204.554C226.696 204.07 227.158 203.644 227.73 203.278C228.316 202.911 229.072 202.728 229.996 202.728C231.022 202.728 231.939 202.977 232.746 203.476C233.552 203.974 234.19 204.656 234.66 205.522C235.129 206.387 235.364 207.37 235.364 208.47C235.364 209.57 235.129 210.552 234.66 211.418C234.19 212.268 233.552 212.943 232.746 213.442C231.939 213.926 231.022 214.168 229.996 214.168C229.174 214.168 228.456 214.014 227.84 213.706C227.224 213.398 226.725 212.965 226.344 212.408V218.744H223.528ZM229.402 211.704C230.296 211.704 231.037 211.403 231.624 210.802C232.21 210.2 232.504 209.423 232.504 208.47C232.504 207.516 232.21 206.732 231.624 206.116C231.037 205.5 230.296 205.192 229.402 205.192C228.492 205.192 227.744 205.5 227.158 206.116C226.586 206.717 226.3 207.494 226.3 208.448C226.3 209.401 226.586 210.186 227.158 210.802C227.744 211.403 228.492 211.704 229.402 211.704ZM242.312 213.904C241.168 213.904 240.251 213.625 239.562 213.068C238.872 212.51 238.528 211.52 238.528 210.098V205.346H236.658V202.992H238.528L238.858 200.066H241.344V202.992H244.292V205.346H241.344V210.12C241.344 210.648 241.454 211.014 241.674 211.22C241.908 211.41 242.304 211.506 242.862 211.506H244.226V213.904H242.312ZM251.666 214.168C250.61 214.168 249.657 213.926 248.806 213.442C247.97 212.958 247.303 212.29 246.804 211.44C246.32 210.574 246.078 209.577 246.078 208.448C246.078 207.318 246.327 206.328 246.826 205.478C247.325 204.612 247.992 203.938 248.828 203.454C249.679 202.97 250.632 202.728 251.688 202.728C252.729 202.728 253.668 202.97 254.504 203.454C255.355 203.938 256.022 204.612 256.506 205.478C257.005 206.328 257.254 207.318 257.254 208.448C257.254 209.577 257.005 210.574 256.506 211.44C256.022 212.29 255.355 212.958 254.504 213.442C253.653 213.926 252.707 214.168 251.666 214.168ZM251.666 211.726C252.399 211.726 253.037 211.454 253.58 210.912C254.123 210.354 254.394 209.533 254.394 208.448C254.394 207.362 254.123 206.548 253.58 206.006C253.037 205.448 252.407 205.17 251.688 205.17C250.94 205.17 250.295 205.448 249.752 206.006C249.224 206.548 248.96 207.362 248.96 208.448C248.96 209.533 249.224 210.354 249.752 210.912C250.295 211.454 250.933 211.726 251.666 211.726ZM267.962 213.904L263.958 202.992H266.906L269.678 211.242L272.45 202.992H275.398L271.372 213.904H267.962ZM281.276 214.168C280.308 214.168 279.457 214.014 278.724 213.706C277.991 213.383 277.404 212.943 276.964 212.386C276.524 211.828 276.26 211.183 276.172 210.45H279.01C279.098 210.875 279.333 211.242 279.714 211.55C280.11 211.843 280.616 211.99 281.232 211.99C281.848 211.99 282.295 211.865 282.574 211.616C282.867 211.366 283.014 211.08 283.014 210.758C283.014 210.288 282.809 209.973 282.398 209.812C281.987 209.636 281.415 209.467 280.682 209.306C280.213 209.203 279.736 209.078 279.252 208.932C278.768 208.785 278.321 208.602 277.91 208.382C277.514 208.147 277.191 207.854 276.942 207.502C276.693 207.135 276.568 206.688 276.568 206.16C276.568 205.192 276.949 204.378 277.712 203.718C278.489 203.058 279.575 202.728 280.968 202.728C282.259 202.728 283.285 203.028 284.048 203.63C284.825 204.231 285.287 205.06 285.434 206.116H282.772C282.611 205.309 282.002 204.906 280.946 204.906C280.418 204.906 280.007 205.008 279.714 205.214C279.435 205.419 279.296 205.676 279.296 205.984C279.296 206.306 279.509 206.563 279.934 206.754C280.359 206.944 280.924 207.12 281.628 207.282C282.391 207.458 283.087 207.656 283.718 207.876C284.363 208.081 284.877 208.396 285.258 208.822C285.639 209.232 285.83 209.826 285.83 210.604C285.845 211.278 285.669 211.887 285.302 212.43C284.935 212.972 284.407 213.398 283.718 213.706C283.029 214.014 282.215 214.168 281.276 214.168ZM298.891 214.168C297.761 214.168 296.764 213.977 295.899 213.596C295.033 213.2 294.351 212.642 293.853 211.924C293.354 211.19 293.097 210.303 293.083 209.262H296.053C296.082 209.98 296.339 210.589 296.823 211.088C297.321 211.572 298.003 211.814 298.869 211.814C299.617 211.814 300.211 211.638 300.651 211.286C301.091 210.919 301.311 210.435 301.311 209.834C301.311 209.203 301.113 208.712 300.717 208.36C300.335 208.008 299.822 207.722 299.177 207.502C298.531 207.282 297.842 207.047 297.109 206.798C295.921 206.387 295.011 205.859 294.381 205.214C293.765 204.568 293.457 203.71 293.457 202.64C293.442 201.73 293.655 200.953 294.095 200.308C294.549 199.648 295.165 199.142 295.943 198.79C296.72 198.423 297.615 198.24 298.627 198.24C299.653 198.24 300.555 198.423 301.333 198.79C302.125 199.156 302.741 199.67 303.181 200.33C303.635 200.99 303.877 201.774 303.907 202.684H300.893C300.878 202.141 300.665 201.664 300.255 201.254C299.859 200.828 299.301 200.616 298.583 200.616C297.967 200.601 297.446 200.755 297.021 201.078C296.61 201.386 296.405 201.84 296.405 202.442C296.405 202.955 296.566 203.366 296.889 203.674C297.211 203.967 297.651 204.216 298.209 204.422C298.766 204.627 299.404 204.847 300.123 205.082C300.885 205.346 301.582 205.654 302.213 206.006C302.843 206.358 303.349 206.827 303.731 207.414C304.112 207.986 304.303 208.726 304.303 209.636C304.303 210.442 304.097 211.19 303.687 211.88C303.276 212.569 302.667 213.126 301.861 213.552C301.054 213.962 300.064 214.168 298.891 214.168ZM311.556 213.904C310.412 213.904 309.495 213.625 308.806 213.068C308.116 212.51 307.772 211.52 307.772 210.098V205.346H305.902V202.992H307.772L308.102 200.066H310.588V202.992H313.536V205.346H310.588V210.12C310.588 210.648 310.698 211.014 310.918 211.22C311.152 211.41 311.548 211.506 312.106 211.506H313.47V213.904H311.556ZM319.715 214.168C318.777 214.168 318.007 214.021 317.405 213.728C316.804 213.42 316.357 213.016 316.063 212.518C315.77 212.019 315.623 211.469 315.623 210.868C315.623 209.856 316.019 209.034 316.811 208.404C317.603 207.773 318.791 207.458 320.375 207.458H323.147V207.194C323.147 206.446 322.935 205.896 322.509 205.544C322.084 205.192 321.556 205.016 320.925 205.016C320.353 205.016 319.855 205.155 319.429 205.434C319.004 205.698 318.74 206.094 318.637 206.622H315.887C315.961 205.83 316.225 205.14 316.679 204.554C317.149 203.967 317.75 203.52 318.483 203.212C319.217 202.889 320.038 202.728 320.947 202.728C322.502 202.728 323.727 203.116 324.621 203.894C325.516 204.671 325.963 205.771 325.963 207.194V213.904H323.565L323.301 212.144C322.979 212.73 322.524 213.214 321.937 213.596C321.365 213.977 320.625 214.168 319.715 214.168ZM320.353 211.968C321.16 211.968 321.783 211.704 322.223 211.176C322.678 210.648 322.964 209.995 323.081 209.218H320.683C319.935 209.218 319.4 209.357 319.077 209.636C318.755 209.9 318.593 210.23 318.593 210.626C318.593 211.051 318.755 211.381 319.077 211.616C319.4 211.85 319.825 211.968 320.353 211.968ZM335.119 214.168C334.297 214.168 333.579 214.014 332.963 213.706C332.347 213.398 331.848 212.965 331.467 212.408L331.159 213.904H328.651V198.064H331.467V204.554C331.819 204.07 332.281 203.644 332.853 203.278C333.439 202.911 334.195 202.728 335.119 202.728C336.145 202.728 337.062 202.977 337.869 203.476C338.675 203.974 339.313 204.656 339.783 205.522C340.252 206.387 340.487 207.37 340.487 208.47C340.487 209.57 340.252 210.552 339.783 211.418C339.313 212.268 338.675 212.943 337.869 213.442C337.062 213.926 336.145 214.168 335.119 214.168ZM334.525 211.704C335.419 211.704 336.16 211.403 336.747 210.802C337.333 210.2 337.627 209.423 337.627 208.47C337.627 207.516 337.333 206.732 336.747 206.116C336.16 205.5 335.419 205.192 334.525 205.192C333.615 205.192 332.867 205.5 332.281 206.116C331.709 206.717 331.423 207.494 331.423 208.448C331.423 209.401 331.709 210.186 332.281 210.802C332.867 211.403 333.615 211.704 334.525 211.704ZM343.002 213.904V198.064H345.818V213.904H343.002ZM353.998 214.168C352.898 214.168 351.922 213.933 351.072 213.464C350.221 212.994 349.554 212.334 349.07 211.484C348.586 210.633 348.344 209.65 348.344 208.536C348.344 207.406 348.578 206.402 349.048 205.522C349.532 204.642 350.192 203.96 351.028 203.476C351.878 202.977 352.876 202.728 354.02 202.728C355.09 202.728 356.036 202.962 356.858 203.432C357.679 203.901 358.317 204.546 358.772 205.368C359.241 206.174 359.476 207.076 359.476 208.074C359.476 208.235 359.468 208.404 359.454 208.58C359.454 208.756 359.446 208.939 359.432 209.13H351.138C351.196 209.98 351.49 210.648 352.018 211.132C352.56 211.616 353.213 211.858 353.976 211.858C354.548 211.858 355.024 211.733 355.406 211.484C355.802 211.22 356.095 210.882 356.286 210.472H359.146C358.94 211.161 358.596 211.792 358.112 212.364C357.642 212.921 357.056 213.361 356.352 213.684C355.662 214.006 354.878 214.168 353.998 214.168ZM354.02 205.016C353.33 205.016 352.722 205.214 352.194 205.61C351.666 205.991 351.328 206.578 351.182 207.37H356.616C356.572 206.651 356.308 206.079 355.824 205.654C355.34 205.228 354.738 205.016 354.02 205.016ZM366.354 214.168C365.386 214.168 364.535 214.014 363.802 213.706C363.069 213.383 362.482 212.943 362.042 212.386C361.602 211.828 361.338 211.183 361.25 210.45H364.088C364.176 210.875 364.411 211.242 364.792 211.55C365.188 211.843 365.694 211.99 366.31 211.99C366.926 211.99 367.373 211.865 367.652 211.616C367.945 211.366 368.092 211.08 368.092 210.758C368.092 210.288 367.887 209.973 367.476 209.812C367.065 209.636 366.493 209.467 365.76 209.306C365.291 209.203 364.814 209.078 364.33 208.932C363.846 208.785 363.399 208.602 362.988 208.382C362.592 208.147 362.269 207.854 362.02 207.502C361.771 207.135 361.646 206.688 361.646 206.16C361.646 205.192 362.027 204.378 362.79 203.718C363.567 203.058 364.653 202.728 366.046 202.728C367.337 202.728 368.363 203.028 369.126 203.63C369.903 204.231 370.365 205.06 370.512 206.116H367.85C367.689 205.309 367.08 204.906 366.024 204.906C365.496 204.906 365.085 205.008 364.792 205.214C364.513 205.419 364.374 205.676 364.374 205.984C364.374 206.306 364.587 206.563 365.012 206.754C365.437 206.944 366.002 207.12 366.706 207.282C367.469 207.458 368.165 207.656 368.796 207.876C369.441 208.081 369.955 208.396 370.336 208.822C370.717 209.232 370.908 209.826 370.908 210.604C370.923 211.278 370.747 211.887 370.38 212.43C370.013 212.972 369.485 213.398 368.796 213.706C368.107 214.014 367.293 214.168 366.354 214.168Z" fill="white"/>
    <path d="M32.5127 323.144C31.486 323.144 30.586 322.964 29.8127 322.604C29.0393 322.244 28.4327 321.73 27.9927 321.064C27.566 320.397 27.346 319.604 27.3327 318.684H29.5727C29.586 319.43 29.846 320.064 30.3527 320.584C30.8593 321.104 31.5727 321.364 32.4927 321.364C33.306 321.364 33.9393 321.17 34.3927 320.784C34.8593 320.384 35.0927 319.877 35.0927 319.264C35.0927 318.77 34.9793 318.37 34.7527 318.064C34.5393 317.757 34.2393 317.504 33.8527 317.304C33.4793 317.104 33.046 316.924 32.5527 316.764C32.0593 316.604 31.5393 316.43 30.9927 316.244C29.9127 315.884 29.0993 315.417 28.5527 314.844C28.0193 314.27 27.7527 313.517 27.7527 312.584C27.7393 311.797 27.9193 311.11 28.2927 310.524C28.6793 309.937 29.2127 309.484 29.8927 309.164C30.586 308.83 31.3927 308.664 32.3127 308.664C33.2193 308.664 34.0127 308.83 34.6927 309.164C35.386 309.497 35.926 309.964 36.3127 310.564C36.6993 311.15 36.8993 311.837 36.9127 312.624H34.6727C34.6727 312.264 34.5793 311.924 34.3927 311.604C34.206 311.27 33.9327 310.997 33.5727 310.784C33.2127 310.57 32.7727 310.464 32.2527 310.464C31.586 310.45 31.0327 310.617 30.5927 310.964C30.166 311.31 29.9527 311.79 29.9527 312.404C29.9527 312.95 30.1127 313.37 30.4327 313.664C30.7527 313.957 31.1927 314.204 31.7527 314.404C32.3127 314.59 32.9527 314.81 33.6727 315.064C34.366 315.29 34.986 315.564 35.5327 315.884C36.0793 316.204 36.5127 316.624 36.8327 317.144C37.166 317.664 37.3327 318.324 37.3327 319.124C37.3327 319.83 37.1527 320.49 36.7927 321.104C36.4327 321.704 35.8927 322.197 35.1727 322.584C34.4527 322.957 33.566 323.144 32.5127 323.144ZM43.7305 322.904C42.7571 322.904 41.9838 322.67 41.4105 322.204C40.8371 321.724 40.5505 320.877 40.5505 319.664V314.764H38.8505V312.984H40.5505L40.8105 310.464H42.6705V312.984H45.4705V314.764H42.6705V319.664C42.6705 320.21 42.7838 320.59 43.0105 320.804C43.2505 321.004 43.6571 321.104 44.2305 321.104H45.3705V322.904H43.7305ZM51.0164 323.144C50.1764 323.144 49.4831 323.004 48.9364 322.724C48.3897 322.444 47.9831 322.077 47.7164 321.624C47.4497 321.157 47.3164 320.65 47.3164 320.104C47.3164 319.144 47.6897 318.384 48.4364 317.824C49.1831 317.264 50.2497 316.984 51.6364 316.984H54.2364V316.804C54.2364 316.03 54.0231 315.45 53.5964 315.064C53.1831 314.677 52.6431 314.484 51.9764 314.484C51.3897 314.484 50.8764 314.63 50.4364 314.924C50.0097 315.204 49.7497 315.624 49.6564 316.184H47.5364C47.6031 315.464 47.8431 314.85 48.2564 314.344C48.6831 313.824 49.2164 313.43 49.8564 313.164C50.5097 312.884 51.2231 312.744 51.9964 312.744C53.3831 312.744 54.4564 313.11 55.2164 313.844C55.9764 314.564 56.3564 315.55 56.3564 316.804V322.904H54.5164L54.3364 321.204C54.0564 321.75 53.6497 322.21 53.1164 322.584C52.5831 322.957 51.8831 323.144 51.0164 323.144ZM51.4364 321.424C52.0097 321.424 52.4897 321.29 52.8764 321.024C53.2764 320.744 53.5831 320.377 53.7964 319.924C54.0231 319.47 54.1631 318.97 54.2164 318.424H51.8564C51.0164 318.424 50.4164 318.57 50.0564 318.864C49.7097 319.157 49.5364 319.524 49.5364 319.964C49.5364 320.417 49.7031 320.777 50.0364 321.044C50.3831 321.297 50.8497 321.424 51.4364 321.424ZM64.4083 323.144C63.6349 323.144 62.9483 322.99 62.3483 322.684C61.7616 322.377 61.2949 321.944 60.9483 321.384L60.7283 322.904H58.8283V308.504H60.9483V314.524C61.2683 314.057 61.7083 313.644 62.2683 313.284C62.8283 312.924 63.5483 312.744 64.4283 312.744C65.3883 312.744 66.2349 312.97 66.9683 313.424C67.7016 313.877 68.2749 314.497 68.6883 315.284C69.1149 316.07 69.3283 316.964 69.3283 317.964C69.3283 318.964 69.1149 319.857 68.6883 320.644C68.2749 321.417 67.7016 322.03 66.9683 322.484C66.2349 322.924 65.3816 323.144 64.4083 323.144ZM64.0483 321.304C64.9549 321.304 65.7016 320.997 66.2883 320.384C66.8749 319.757 67.1683 318.944 67.1683 317.944C67.1683 317.29 67.0349 316.71 66.7683 316.204C66.5016 315.697 66.1349 315.304 65.6683 315.024C65.2016 314.73 64.6616 314.584 64.0483 314.584C63.1416 314.584 62.3949 314.897 61.8083 315.524C61.2349 316.15 60.9483 316.957 60.9483 317.944C60.9483 318.944 61.2349 319.757 61.8083 320.384C62.3949 320.997 63.1416 321.304 64.0483 321.304ZM71.6213 322.904V308.504H73.7413V322.904H71.6213ZM81.0659 323.144C80.0926 323.144 79.2259 322.93 78.4659 322.504C77.7193 322.064 77.1326 321.457 76.7059 320.684C76.2793 319.91 76.0659 319.01 76.0659 317.984C76.0659 316.944 76.2726 316.03 76.6859 315.244C77.1126 314.457 77.6993 313.844 78.4459 313.404C79.2059 312.964 80.0859 312.744 81.0859 312.744C82.0593 312.744 82.9059 312.964 83.6259 313.404C84.3459 313.83 84.9059 314.404 85.3059 315.124C85.7059 315.844 85.9059 316.637 85.9059 317.504C85.9059 317.637 85.8993 317.784 85.8859 317.944C85.8859 318.09 85.8793 318.257 85.8659 318.444H78.1459C78.2126 319.404 78.5259 320.137 79.0859 320.644C79.6593 321.137 80.3193 321.384 81.0659 321.384C81.6659 321.384 82.1659 321.25 82.5659 320.984C82.9793 320.704 83.2859 320.33 83.4859 319.864H85.6059C85.3393 320.797 84.8059 321.577 84.0059 322.204C83.2193 322.83 82.2393 323.144 81.0659 323.144ZM81.0659 314.484C80.3593 314.484 79.7326 314.697 79.1859 315.124C78.6393 315.537 78.3059 316.164 78.1859 317.004H83.7859C83.7459 316.23 83.4726 315.617 82.9659 315.164C82.4593 314.71 81.8259 314.484 81.0659 314.484ZM92.8056 323.144C91.8323 323.144 90.959 322.924 90.1856 322.484C89.4256 322.044 88.8256 321.437 88.3856 320.664C87.959 319.877 87.7456 318.97 87.7456 317.944C87.7456 316.917 87.959 316.017 88.3856 315.244C88.8256 314.457 89.4256 313.844 90.1856 313.404C90.959 312.964 91.8323 312.744 92.8056 312.744C94.0323 312.744 95.059 313.064 95.8856 313.704C96.7256 314.344 97.2656 315.21 97.5056 316.304H95.2856C95.1523 315.757 94.859 315.33 94.4056 315.024C93.9523 314.717 93.419 314.564 92.8056 314.564C92.2856 314.564 91.8056 314.697 91.3656 314.964C90.9256 315.217 90.5723 315.597 90.3056 316.104C90.039 316.597 89.9056 317.21 89.9056 317.944C89.9056 318.677 90.039 319.297 90.3056 319.804C90.5723 320.297 90.9256 320.677 91.3656 320.944C91.8056 321.21 92.2856 321.344 92.8056 321.344C93.419 321.344 93.9523 321.19 94.4056 320.884C94.859 320.577 95.1523 320.144 95.2856 319.584H97.5056C97.279 320.65 96.7456 321.51 95.9056 322.164C95.0656 322.817 94.0323 323.144 92.8056 323.144ZM104.445 323.144C103.498 323.144 102.645 322.93 101.885 322.504C101.138 322.064 100.545 321.457 100.105 320.684C99.6648 319.897 99.4448 318.984 99.4448 317.944C99.4448 316.904 99.6648 315.997 100.105 315.224C100.558 314.437 101.165 313.83 101.925 313.404C102.685 312.964 103.532 312.744 104.465 312.744C105.412 312.744 106.258 312.964 107.005 313.404C107.765 313.83 108.365 314.437 108.805 315.224C109.258 315.997 109.485 316.904 109.485 317.944C109.485 318.984 109.258 319.897 108.805 320.684C108.365 321.457 107.765 322.064 107.005 322.504C106.245 322.93 105.392 323.144 104.445 323.144ZM104.445 321.324C104.952 321.324 105.418 321.197 105.845 320.944C106.285 320.69 106.638 320.317 106.905 319.824C107.172 319.317 107.305 318.69 107.305 317.944C107.305 317.197 107.172 316.577 106.905 316.084C106.652 315.577 106.305 315.197 105.865 314.944C105.438 314.69 104.972 314.564 104.465 314.564C103.958 314.564 103.485 314.69 103.045 314.944C102.618 315.197 102.272 315.577 102.005 316.084C101.738 316.577 101.605 317.197 101.605 317.944C101.605 318.69 101.738 319.317 102.005 319.824C102.272 320.317 102.618 320.69 103.045 320.944C103.472 321.197 103.938 321.324 104.445 321.324ZM112.978 311.104C112.578 311.104 112.244 310.984 111.978 310.744C111.724 310.49 111.598 310.177 111.598 309.804C111.598 309.43 111.724 309.124 111.978 308.884C112.244 308.63 112.578 308.504 112.978 308.504C113.378 308.504 113.704 308.63 113.958 308.884C114.224 309.124 114.358 309.43 114.358 309.804C114.358 310.177 114.224 310.49 113.958 310.744C113.704 310.984 113.378 311.104 112.978 311.104ZM111.918 322.904V312.984H114.038V322.904H111.918ZM116.836 322.904V312.984H118.716L118.876 314.724C119.183 314.11 119.629 313.63 120.216 313.284C120.816 312.924 121.503 312.744 122.276 312.744C123.476 312.744 124.416 313.117 125.096 313.864C125.789 314.61 126.136 315.724 126.136 317.204V322.904H124.036V317.424C124.036 315.504 123.249 314.544 121.676 314.544C120.889 314.544 120.236 314.824 119.716 315.384C119.209 315.944 118.956 316.744 118.956 317.784V322.904H116.836ZM132.593 323.144C131.34 323.144 130.306 322.837 129.493 322.224C128.68 321.61 128.213 320.797 128.093 319.784H130.233C130.34 320.237 130.593 320.63 130.993 320.964C131.393 321.284 131.92 321.444 132.573 321.444C133.213 321.444 133.68 321.31 133.973 321.044C134.266 320.777 134.413 320.47 134.413 320.124C134.413 319.617 134.206 319.277 133.793 319.104C133.393 318.917 132.833 318.75 132.113 318.604C131.553 318.484 130.993 318.324 130.433 318.124C129.886 317.924 129.426 317.644 129.053 317.284C128.693 316.91 128.513 316.41 128.513 315.784C128.513 314.917 128.846 314.197 129.513 313.624C130.18 313.037 131.113 312.744 132.313 312.744C133.42 312.744 134.313 313.01 134.993 313.544C135.686 314.077 136.093 314.83 136.213 315.804H134.173C134.106 315.377 133.906 315.044 133.573 314.804C133.253 314.564 132.82 314.444 132.273 314.444C131.74 314.444 131.326 314.557 131.033 314.784C130.74 314.997 130.593 315.277 130.593 315.624C130.593 315.97 130.793 316.244 131.193 316.444C131.606 316.644 132.146 316.824 132.813 316.984C133.48 317.13 134.093 317.304 134.653 317.504C135.226 317.69 135.686 317.97 136.033 318.344C136.38 318.717 136.553 319.264 136.553 319.984C136.566 320.89 136.213 321.644 135.493 322.244C134.786 322.844 133.82 323.144 132.593 323.144Z" fill="#85B0F0"/>
    <circle cx="7.5" cy="315.404" r="7.5" fill="#85B0F0"/>
    <path d="M166.66 399.904V385.904H171.2C172.84 385.904 174.187 386.19 175.24 386.764C176.307 387.337 177.094 388.15 177.6 389.204C178.12 390.244 178.38 391.484 178.38 392.924C178.38 394.35 178.12 395.59 177.6 396.644C177.094 397.684 176.307 398.49 175.24 399.064C174.187 399.624 172.84 399.904 171.2 399.904H166.66ZM168.78 398.104H171.12C172.387 398.104 173.387 397.897 174.12 397.484C174.867 397.07 175.4 396.477 175.72 395.704C176.054 394.93 176.22 394.004 176.22 392.924C176.22 391.844 176.054 390.91 175.72 390.124C175.4 389.337 174.867 388.737 174.12 388.324C173.387 387.897 172.387 387.684 171.12 387.684H168.78V398.104ZM185.283 400.144C184.309 400.144 183.443 399.93 182.683 399.504C181.936 399.064 181.349 398.457 180.923 397.684C180.496 396.91 180.283 396.01 180.283 394.984C180.283 393.944 180.489 393.03 180.903 392.244C181.329 391.457 181.916 390.844 182.663 390.404C183.423 389.964 184.303 389.744 185.303 389.744C186.276 389.744 187.123 389.964 187.843 390.404C188.563 390.83 189.123 391.404 189.523 392.124C189.923 392.844 190.123 393.637 190.123 394.504C190.123 394.637 190.116 394.784 190.103 394.944C190.103 395.09 190.096 395.257 190.083 395.444H182.363C182.429 396.404 182.743 397.137 183.303 397.644C183.876 398.137 184.536 398.384 185.283 398.384C185.883 398.384 186.383 398.25 186.783 397.984C187.196 397.704 187.503 397.33 187.703 396.864H189.823C189.556 397.797 189.023 398.577 188.223 399.204C187.436 399.83 186.456 400.144 185.283 400.144ZM185.283 391.484C184.576 391.484 183.949 391.697 183.403 392.124C182.856 392.537 182.523 393.164 182.403 394.004H188.003C187.963 393.23 187.689 392.617 187.183 392.164C186.676 391.71 186.043 391.484 185.283 391.484ZM197.022 400.144C196.049 400.144 195.176 399.924 194.402 399.484C193.642 399.044 193.042 398.437 192.602 397.664C192.176 396.877 191.962 395.97 191.962 394.944C191.962 393.917 192.176 393.017 192.602 392.244C193.042 391.457 193.642 390.844 194.402 390.404C195.176 389.964 196.049 389.744 197.022 389.744C198.249 389.744 199.276 390.064 200.102 390.704C200.942 391.344 201.482 392.21 201.722 393.304H199.502C199.369 392.757 199.076 392.33 198.622 392.024C198.169 391.717 197.636 391.564 197.022 391.564C196.502 391.564 196.022 391.697 195.582 391.964C195.142 392.217 194.789 392.597 194.522 393.104C194.256 393.597 194.122 394.21 194.122 394.944C194.122 395.677 194.256 396.297 194.522 396.804C194.789 397.297 195.142 397.677 195.582 397.944C196.022 398.21 196.502 398.344 197.022 398.344C197.636 398.344 198.169 398.19 198.622 397.884C199.076 397.577 199.369 397.144 199.502 396.584H201.722C201.496 397.65 200.962 398.51 200.122 399.164C199.282 399.817 198.249 400.144 197.022 400.144ZM208.662 400.144C207.688 400.144 206.822 399.93 206.062 399.504C205.315 399.064 204.728 398.457 204.302 397.684C203.875 396.91 203.662 396.01 203.662 394.984C203.662 393.944 203.868 393.03 204.282 392.244C204.708 391.457 205.295 390.844 206.042 390.404C206.802 389.964 207.682 389.744 208.682 389.744C209.655 389.744 210.502 389.964 211.222 390.404C211.942 390.83 212.502 391.404 212.902 392.124C213.302 392.844 213.502 393.637 213.502 394.504C213.502 394.637 213.495 394.784 213.482 394.944C213.482 395.09 213.475 395.257 213.462 395.444H205.742C205.808 396.404 206.122 397.137 206.682 397.644C207.255 398.137 207.915 398.384 208.662 398.384C209.262 398.384 209.762 398.25 210.162 397.984C210.575 397.704 210.882 397.33 211.082 396.864H213.202C212.935 397.797 212.402 398.577 211.602 399.204C210.815 399.83 209.835 400.144 208.662 400.144ZM208.662 391.484C207.955 391.484 207.328 391.697 206.782 392.124C206.235 392.537 205.902 393.164 205.782 394.004H211.382C211.342 393.23 211.068 392.617 210.562 392.164C210.055 391.71 209.422 391.484 208.662 391.484ZM215.701 399.904V389.984H217.581L217.741 391.724C218.048 391.11 218.495 390.63 219.081 390.284C219.681 389.924 220.368 389.744 221.141 389.744C222.341 389.744 223.281 390.117 223.961 390.864C224.655 391.61 225.001 392.724 225.001 394.204V399.904H222.901V394.424C222.901 392.504 222.115 391.544 220.541 391.544C219.755 391.544 219.101 391.824 218.581 392.384C218.075 392.944 217.821 393.744 217.821 394.784V399.904H215.701ZM231.658 399.904C230.685 399.904 229.912 399.67 229.338 399.204C228.765 398.724 228.478 397.877 228.478 396.664V391.764H226.778V389.984H228.478L228.738 387.464H230.598V389.984H233.398V391.764H230.598V396.664C230.598 397.21 230.712 397.59 230.938 397.804C231.178 398.004 231.585 398.104 232.158 398.104H233.298V399.904H231.658ZM235.584 399.904V389.984H237.484L237.664 391.864C238.011 391.21 238.491 390.697 239.104 390.324C239.731 389.937 240.484 389.744 241.364 389.744V391.964H240.784C240.197 391.964 239.671 392.064 239.204 392.264C238.751 392.45 238.384 392.777 238.104 393.244C237.837 393.697 237.704 394.33 237.704 395.144V399.904H235.584ZM246.542 400.144C245.702 400.144 245.008 400.004 244.462 399.724C243.915 399.444 243.508 399.077 243.242 398.624C242.975 398.157 242.842 397.65 242.842 397.104C242.842 396.144 243.215 395.384 243.962 394.824C244.708 394.264 245.775 393.984 247.162 393.984H249.762V393.804C249.762 393.03 249.548 392.45 249.122 392.064C248.708 391.677 248.168 391.484 247.502 391.484C246.915 391.484 246.402 391.63 245.962 391.924C245.535 392.204 245.275 392.624 245.182 393.184H243.062C243.128 392.464 243.368 391.85 243.782 391.344C244.208 390.824 244.742 390.43 245.382 390.164C246.035 389.884 246.748 389.744 247.522 389.744C248.908 389.744 249.982 390.11 250.742 390.844C251.502 391.564 251.882 392.55 251.882 393.804V399.904H250.042L249.862 398.204C249.582 398.75 249.175 399.21 248.642 399.584C248.108 399.957 247.408 400.144 246.542 400.144ZM246.962 398.424C247.535 398.424 248.015 398.29 248.402 398.024C248.802 397.744 249.108 397.377 249.322 396.924C249.548 396.47 249.688 395.97 249.742 395.424H247.382C246.542 395.424 245.942 395.57 245.582 395.864C245.235 396.157 245.062 396.524 245.062 396.964C245.062 397.417 245.228 397.777 245.562 398.044C245.908 398.297 246.375 398.424 246.962 398.424ZM254.354 399.904V385.504H256.474V399.904H254.354ZM260.358 388.104C259.958 388.104 259.625 387.984 259.358 387.744C259.105 387.49 258.978 387.177 258.978 386.804C258.978 386.43 259.105 386.124 259.358 385.884C259.625 385.63 259.958 385.504 260.358 385.504C260.758 385.504 261.085 385.63 261.338 385.884C261.605 386.124 261.738 386.43 261.738 386.804C261.738 387.177 261.605 387.49 261.338 387.744C261.085 387.984 260.758 388.104 260.358 388.104ZM259.298 399.904V389.984H261.418V399.904H259.298ZM263.557 399.904V398.184L268.857 391.744H263.637V389.984H271.257V391.704L265.917 398.144H271.357V399.904H263.557ZM278.173 400.144C277.2 400.144 276.333 399.93 275.573 399.504C274.827 399.064 274.24 398.457 273.813 397.684C273.387 396.91 273.173 396.01 273.173 394.984C273.173 393.944 273.38 393.03 273.793 392.244C274.22 391.457 274.807 390.844 275.553 390.404C276.313 389.964 277.193 389.744 278.193 389.744C279.167 389.744 280.013 389.964 280.733 390.404C281.453 390.83 282.013 391.404 282.413 392.124C282.813 392.844 283.013 393.637 283.013 394.504C283.013 394.637 283.007 394.784 282.993 394.944C282.993 395.09 282.987 395.257 282.973 395.444H275.253C275.32 396.404 275.633 397.137 276.193 397.644C276.767 398.137 277.427 398.384 278.173 398.384C278.773 398.384 279.273 398.25 279.673 397.984C280.087 397.704 280.393 397.33 280.593 396.864H282.713C282.447 397.797 281.913 398.577 281.113 399.204C280.327 399.83 279.347 400.144 278.173 400.144ZM278.173 391.484C277.467 391.484 276.84 391.697 276.293 392.124C275.747 392.537 275.413 393.164 275.293 394.004H280.893C280.853 393.23 280.58 392.617 280.073 392.164C279.567 391.71 278.933 391.484 278.173 391.484ZM289.733 400.144C288.773 400.144 287.926 399.917 287.193 399.464C286.46 399.01 285.886 398.39 285.473 397.604C285.06 396.817 284.853 395.924 284.853 394.924C284.853 393.924 285.06 393.037 285.473 392.264C285.886 391.477 286.46 390.864 287.193 390.424C287.94 389.97 288.793 389.744 289.753 389.744C290.54 389.744 291.226 389.897 291.813 390.204C292.413 390.51 292.88 390.944 293.213 391.504V385.504H295.333V399.904H293.433L293.213 398.364C292.893 398.83 292.453 399.244 291.893 399.604C291.333 399.964 290.613 400.144 289.733 400.144ZM290.113 398.304C291.02 398.304 291.76 397.99 292.333 397.364C292.92 396.737 293.213 395.93 293.213 394.944C293.213 393.944 292.92 393.137 292.333 392.524C291.76 391.897 291.02 391.584 290.113 391.584C289.206 391.584 288.46 391.897 287.873 392.524C287.286 393.137 286.993 393.944 286.993 394.944C286.993 395.597 287.126 396.177 287.393 396.684C287.66 397.19 288.026 397.59 288.493 397.884C288.973 398.164 289.513 398.304 290.113 398.304ZM307.745 400.144C306.718 400.144 305.818 399.964 305.045 399.604C304.272 399.244 303.665 398.73 303.225 398.064C302.798 397.397 302.578 396.604 302.565 395.684H304.805C304.818 396.43 305.078 397.064 305.585 397.584C306.092 398.104 306.805 398.364 307.725 398.364C308.538 398.364 309.172 398.17 309.625 397.784C310.092 397.384 310.325 396.877 310.325 396.264C310.325 395.77 310.212 395.37 309.985 395.064C309.772 394.757 309.472 394.504 309.085 394.304C308.712 394.104 308.278 393.924 307.785 393.764C307.292 393.604 306.772 393.43 306.225 393.244C305.145 392.884 304.332 392.417 303.785 391.844C303.252 391.27 302.985 390.517 302.985 389.584C302.972 388.797 303.152 388.11 303.525 387.524C303.912 386.937 304.445 386.484 305.125 386.164C305.818 385.83 306.625 385.664 307.545 385.664C308.452 385.664 309.245 385.83 309.925 386.164C310.618 386.497 311.158 386.964 311.545 387.564C311.932 388.15 312.132 388.837 312.145 389.624H309.905C309.905 389.264 309.812 388.924 309.625 388.604C309.438 388.27 309.165 387.997 308.805 387.784C308.445 387.57 308.005 387.464 307.485 387.464C306.818 387.45 306.265 387.617 305.825 387.964C305.398 388.31 305.185 388.79 305.185 389.404C305.185 389.95 305.345 390.37 305.665 390.664C305.985 390.957 306.425 391.204 306.985 391.404C307.545 391.59 308.185 391.81 308.905 392.064C309.598 392.29 310.218 392.564 310.765 392.884C311.312 393.204 311.745 393.624 312.065 394.144C312.398 394.664 312.565 395.324 312.565 396.124C312.565 396.83 312.385 397.49 312.025 398.104C311.665 398.704 311.125 399.197 310.405 399.584C309.685 399.957 308.798 400.144 307.745 400.144ZM318.963 399.904C317.99 399.904 317.216 399.67 316.643 399.204C316.07 398.724 315.783 397.877 315.783 396.664V391.764H314.083V389.984H315.783L316.043 387.464H317.903V389.984H320.703V391.764H317.903V396.664C317.903 397.21 318.016 397.59 318.243 397.804C318.483 398.004 318.89 398.104 319.463 398.104H320.603V399.904H318.963ZM326.249 400.144C325.409 400.144 324.715 400.004 324.169 399.724C323.622 399.444 323.215 399.077 322.949 398.624C322.682 398.157 322.549 397.65 322.549 397.104C322.549 396.144 322.922 395.384 323.669 394.824C324.415 394.264 325.482 393.984 326.869 393.984H329.469V393.804C329.469 393.03 329.255 392.45 328.829 392.064C328.415 391.677 327.875 391.484 327.209 391.484C326.622 391.484 326.109 391.63 325.669 391.924C325.242 392.204 324.982 392.624 324.889 393.184H322.769C322.835 392.464 323.075 391.85 323.489 391.344C323.915 390.824 324.449 390.43 325.089 390.164C325.742 389.884 326.455 389.744 327.229 389.744C328.615 389.744 329.689 390.11 330.449 390.844C331.209 391.564 331.589 392.55 331.589 393.804V399.904H329.749L329.569 398.204C329.289 398.75 328.882 399.21 328.349 399.584C327.815 399.957 327.115 400.144 326.249 400.144ZM326.669 398.424C327.242 398.424 327.722 398.29 328.109 398.024C328.509 397.744 328.815 397.377 329.029 396.924C329.255 396.47 329.395 395.97 329.449 395.424H327.089C326.249 395.424 325.649 395.57 325.289 395.864C324.942 396.157 324.769 396.524 324.769 396.964C324.769 397.417 324.935 397.777 325.269 398.044C325.615 398.297 326.082 398.424 326.669 398.424ZM339.641 400.144C338.867 400.144 338.181 399.99 337.581 399.684C336.994 399.377 336.527 398.944 336.181 398.384L335.961 399.904H334.061V385.504H336.181V391.524C336.501 391.057 336.941 390.644 337.501 390.284C338.061 389.924 338.781 389.744 339.661 389.744C340.621 389.744 341.467 389.97 342.201 390.424C342.934 390.877 343.507 391.497 343.921 392.284C344.347 393.07 344.561 393.964 344.561 394.964C344.561 395.964 344.347 396.857 343.921 397.644C343.507 398.417 342.934 399.03 342.201 399.484C341.467 399.924 340.614 400.144 339.641 400.144ZM339.281 398.304C340.187 398.304 340.934 397.997 341.521 397.384C342.107 396.757 342.401 395.944 342.401 394.944C342.401 394.29 342.267 393.71 342.001 393.204C341.734 392.697 341.367 392.304 340.901 392.024C340.434 391.73 339.894 391.584 339.281 391.584C338.374 391.584 337.627 391.897 337.041 392.524C336.467 393.15 336.181 393.957 336.181 394.944C336.181 395.944 336.467 396.757 337.041 397.384C337.627 397.997 338.374 398.304 339.281 398.304ZM346.854 399.904V385.504H348.974V399.904H346.854ZM356.298 400.144C355.325 400.144 354.458 399.93 353.698 399.504C352.952 399.064 352.365 398.457 351.938 397.684C351.512 396.91 351.298 396.01 351.298 394.984C351.298 393.944 351.505 393.03 351.918 392.244C352.345 391.457 352.932 390.844 353.678 390.404C354.438 389.964 355.318 389.744 356.318 389.744C357.292 389.744 358.138 389.964 358.858 390.404C359.578 390.83 360.138 391.404 360.538 392.124C360.938 392.844 361.138 393.637 361.138 394.504C361.138 394.637 361.132 394.784 361.118 394.944C361.118 395.09 361.112 395.257 361.098 395.444H353.378C353.445 396.404 353.758 397.137 354.318 397.644C354.892 398.137 355.552 398.384 356.298 398.384C356.898 398.384 357.398 398.25 357.798 397.984C358.212 397.704 358.518 397.33 358.718 396.864H360.838C360.572 397.797 360.038 398.577 359.238 399.204C358.452 399.83 357.472 400.144 356.298 400.144ZM356.298 391.484C355.592 391.484 354.965 391.697 354.418 392.124C353.872 392.537 353.538 393.164 353.418 394.004H359.018C358.978 393.23 358.705 392.617 358.198 392.164C357.692 391.71 357.058 391.484 356.298 391.484ZM368.038 400.144C367.065 400.144 366.191 399.924 365.418 399.484C364.658 399.044 364.058 398.437 363.618 397.664C363.191 396.877 362.978 395.97 362.978 394.944C362.978 393.917 363.191 393.017 363.618 392.244C364.058 391.457 364.658 390.844 365.418 390.404C366.191 389.964 367.065 389.744 368.038 389.744C369.265 389.744 370.291 390.064 371.118 390.704C371.958 391.344 372.498 392.21 372.738 393.304H370.518C370.385 392.757 370.091 392.33 369.638 392.024C369.185 391.717 368.651 391.564 368.038 391.564C367.518 391.564 367.038 391.697 366.598 391.964C366.158 392.217 365.805 392.597 365.538 393.104C365.271 393.597 365.138 394.21 365.138 394.944C365.138 395.677 365.271 396.297 365.538 396.804C365.805 397.297 366.158 397.677 366.598 397.944C367.038 398.21 367.518 398.344 368.038 398.344C368.651 398.344 369.185 398.19 369.638 397.884C370.091 397.577 370.385 397.144 370.518 396.584H372.738C372.511 397.65 371.978 398.51 371.138 399.164C370.298 399.817 369.265 400.144 368.038 400.144ZM379.677 400.144C378.731 400.144 377.877 399.93 377.117 399.504C376.371 399.064 375.777 398.457 375.337 397.684C374.897 396.897 374.677 395.984 374.677 394.944C374.677 393.904 374.897 392.997 375.337 392.224C375.791 391.437 376.397 390.83 377.157 390.404C377.917 389.964 378.764 389.744 379.697 389.744C380.644 389.744 381.491 389.964 382.237 390.404C382.997 390.83 383.597 391.437 384.037 392.224C384.491 392.997 384.717 393.904 384.717 394.944C384.717 395.984 384.491 396.897 384.037 397.684C383.597 398.457 382.997 399.064 382.237 399.504C381.477 399.93 380.624 400.144 379.677 400.144ZM379.677 398.324C380.184 398.324 380.651 398.197 381.077 397.944C381.517 397.69 381.871 397.317 382.137 396.824C382.404 396.317 382.537 395.69 382.537 394.944C382.537 394.197 382.404 393.577 382.137 393.084C381.884 392.577 381.537 392.197 381.097 391.944C380.671 391.69 380.204 391.564 379.697 391.564C379.191 391.564 378.717 391.69 378.277 391.944C377.851 392.197 377.504 392.577 377.237 393.084C376.971 393.577 376.837 394.197 376.837 394.944C376.837 395.69 376.971 396.317 377.237 396.824C377.504 397.317 377.851 397.69 378.277 397.944C378.704 398.197 379.171 398.324 379.677 398.324ZM388.21 388.104C387.81 388.104 387.477 387.984 387.21 387.744C386.957 387.49 386.83 387.177 386.83 386.804C386.83 386.43 386.957 386.124 387.21 385.884C387.477 385.63 387.81 385.504 388.21 385.504C388.61 385.504 388.937 385.63 389.19 385.884C389.457 386.124 389.59 386.43 389.59 386.804C389.59 387.177 389.457 387.49 389.19 387.744C388.937 387.984 388.61 388.104 388.21 388.104ZM387.15 399.904V389.984H389.27V399.904H387.15ZM392.069 399.904V389.984H393.949L394.109 391.724C394.415 391.11 394.862 390.63 395.449 390.284C396.049 389.924 396.735 389.744 397.509 389.744C398.709 389.744 399.649 390.117 400.329 390.864C401.022 391.61 401.369 392.724 401.369 394.204V399.904H399.269V394.424C399.269 392.504 398.482 391.544 396.909 391.544C396.122 391.544 395.469 391.824 394.949 392.384C394.442 392.944 394.189 393.744 394.189 394.784V399.904H392.069ZM407.825 400.144C406.572 400.144 405.539 399.837 404.725 399.224C403.912 398.61 403.445 397.797 403.325 396.784H405.465C405.572 397.237 405.825 397.63 406.225 397.964C406.625 398.284 407.152 398.444 407.805 398.444C408.445 398.444 408.912 398.31 409.205 398.044C409.499 397.777 409.645 397.47 409.645 397.124C409.645 396.617 409.439 396.277 409.025 396.104C408.625 395.917 408.065 395.75 407.345 395.604C406.785 395.484 406.225 395.324 405.665 395.124C405.119 394.924 404.659 394.644 404.285 394.284C403.925 393.91 403.745 393.41 403.745 392.784C403.745 391.917 404.079 391.197 404.745 390.624C405.412 390.037 406.345 389.744 407.545 389.744C408.652 389.744 409.545 390.01 410.225 390.544C410.919 391.077 411.325 391.83 411.445 392.804H409.405C409.339 392.377 409.139 392.044 408.805 391.804C408.485 391.564 408.052 391.444 407.505 391.444C406.972 391.444 406.559 391.557 406.265 391.784C405.972 391.997 405.825 392.277 405.825 392.624C405.825 392.97 406.025 393.244 406.425 393.444C406.839 393.644 407.379 393.824 408.045 393.984C408.712 394.13 409.325 394.304 409.885 394.504C410.459 394.69 410.919 394.97 411.265 395.344C411.612 395.717 411.785 396.264 411.785 396.984C411.799 397.89 411.445 398.644 410.725 399.244C410.019 399.844 409.052 400.144 407.825 400.144Z" fill="#E18DD4"/>
    <circle cx="149.5" cy="392.404" r="7.5" fill="#E18DD4"/>
    <path d="M461.701 95.24C460.314 95.24 459.114 94.94 458.101 94.34C457.101 93.7267 456.328 92.88 455.781 91.8C455.234 90.7067 454.961 89.4467 454.961 88.02C454.961 86.58 455.234 85.32 455.781 84.24C456.328 83.1467 457.101 82.2933 458.101 81.68C459.114 81.0667 460.314 80.76 461.701 80.76C463.341 80.76 464.681 81.16 465.721 81.96C466.761 82.76 467.421 83.88 467.701 85.32H465.341C465.154 84.5067 464.754 83.86 464.141 83.38C463.528 82.9 462.708 82.66 461.681 82.66C460.281 82.66 459.174 83.14 458.361 84.1C457.548 85.0467 457.141 86.3533 457.141 88.02C457.141 89.6733 457.548 90.9733 458.361 91.92C459.174 92.8667 460.281 93.34 461.681 93.34C462.708 93.34 463.528 93.1133 464.141 92.66C464.754 92.2067 465.154 91.5867 465.341 90.8H467.701C467.421 92.1867 466.761 93.2733 465.721 94.06C464.681 94.8467 463.341 95.24 461.701 95.24ZM469.951 95V85.08H471.851L472.031 86.96C472.378 86.3067 472.858 85.7933 473.471 85.42C474.098 85.0333 474.851 84.84 475.731 84.84V87.06H475.151C474.565 87.06 474.038 87.16 473.571 87.36C473.118 87.5467 472.751 87.8733 472.471 88.34C472.205 88.7933 472.071 89.4267 472.071 90.24V95H469.951ZM478.709 99.4L481.089 94.18H480.509L476.589 85.08H478.889L481.929 92.42L485.109 85.08H487.349L480.949 99.4H478.709ZM489.092 99.4V85.08H490.992L491.212 86.62C491.532 86.1533 491.972 85.74 492.532 85.38C493.092 85.02 493.812 84.84 494.692 84.84C495.652 84.84 496.499 85.0667 497.232 85.52C497.965 85.9733 498.539 86.5933 498.952 87.38C499.379 88.1667 499.592 89.06 499.592 90.06C499.592 91.06 499.379 91.9533 498.952 92.74C498.539 93.5133 497.965 94.1267 497.232 94.58C496.499 95.02 495.645 95.24 494.672 95.24C493.899 95.24 493.212 95.0867 492.612 94.78C492.025 94.4733 491.559 94.04 491.212 93.48V99.4H489.092ZM494.312 93.4C495.219 93.4 495.965 93.0933 496.552 92.48C497.139 91.8533 497.432 91.04 497.432 90.04C497.432 89.3867 497.299 88.8067 497.032 88.3C496.765 87.7933 496.399 87.4 495.932 87.12C495.465 86.8267 494.925 86.68 494.312 86.68C493.405 86.68 492.659 86.9933 492.072 87.62C491.499 88.2467 491.212 89.0533 491.212 90.04C491.212 91.04 491.499 91.8533 492.072 92.48C492.659 93.0933 493.405 93.4 494.312 93.4ZM505.654 95C504.681 95 503.908 94.7667 503.334 94.3C502.761 93.82 502.474 92.9733 502.474 91.76V86.86H500.774V85.08H502.474L502.734 82.56H504.594V85.08H507.394V86.86H504.594V91.76C504.594 92.3067 504.708 92.6867 504.934 92.9C505.174 93.1 505.581 93.2 506.154 93.2H507.294V95H505.654ZM513.966 95.24C513.02 95.24 512.166 95.0267 511.406 94.6C510.66 94.16 510.066 93.5533 509.626 92.78C509.186 91.9933 508.966 91.08 508.966 90.04C508.966 89 509.186 88.0933 509.626 87.32C510.08 86.5333 510.686 85.9267 511.446 85.5C512.206 85.06 513.053 84.84 513.986 84.84C514.933 84.84 515.78 85.06 516.526 85.5C517.286 85.9267 517.886 86.5333 518.326 87.32C518.78 88.0933 519.006 89 519.006 90.04C519.006 91.08 518.78 91.9933 518.326 92.78C517.886 93.5533 517.286 94.16 516.526 94.6C515.766 95.0267 514.913 95.24 513.966 95.24ZM513.966 93.42C514.473 93.42 514.94 93.2933 515.366 93.04C515.806 92.7867 516.16 92.4133 516.426 91.92C516.693 91.4133 516.826 90.7867 516.826 90.04C516.826 89.2933 516.693 88.6733 516.426 88.18C516.173 87.6733 515.826 87.2933 515.386 87.04C514.96 86.7867 514.493 86.66 513.986 86.66C513.48 86.66 513.006 86.7867 512.566 87.04C512.14 87.2933 511.793 87.6733 511.526 88.18C511.26 88.6733 511.126 89.2933 511.126 90.04C511.126 90.7867 511.26 91.4133 511.526 91.92C511.793 92.4133 512.14 92.7867 512.566 93.04C512.993 93.2933 513.46 93.42 513.966 93.42Z" fill="#FFF698"/>
    <circle cx="437.5" cy="87.5" r="7.5" fill="#FFF698"/>
</svg>
