<svg width="520" height="416" viewBox="0 0 520 416" fill="none" xmlns="http://www.w3.org/2000/svg">
<path d="M203 337.807C234.344 355.903 271.173 362.057 306.697 355.133C342.221 348.209 374.043 328.674 396.296 300.131C418.549 271.589 429.732 235.962 427.782 199.823C425.832 163.683 410.881 129.467 385.687 103.484C360.492 77.5008 326.752 61.5034 290.69 58.4416C254.627 55.3798 218.674 65.46 189.459 86.8234C160.244 108.187 139.739 139.393 131.724 174.686C123.71 209.98 128.726 246.982 145.848 278.868L167.874 267.04C153.605 240.469 149.425 209.634 156.104 180.223C162.783 150.811 179.87 124.806 204.216 107.003C228.561 89.2006 258.523 80.8004 288.575 83.3519C318.627 85.9035 346.743 99.2346 367.739 120.887C388.734 142.539 401.193 171.053 402.818 201.169C404.443 231.286 395.124 260.974 376.58 284.76C358.036 308.546 331.517 324.825 301.914 330.595C272.311 336.365 241.62 331.237 215.5 316.157L203 337.807Z" fill="#FFF698" stroke="#222425" stroke-width="3.40395"/>
<path d="M209.013 341.279L221.513 319.628C226.432 322.468 231.666 324.664 237.141 326.212L225.608 348.538C219.819 346.732 214.266 344.312 209.013 341.279Z" fill="#E18DD4" stroke="#222425" stroke-width="3.40395"/>
<path d="M145.848 278.867C162.112 305.216 185.439 327.668 213.206 343.699L225.705 322.049C202.567 308.689 183.128 289.98 169.574 268.022L145.848 278.867Z" fill="#85B0F0" stroke="#222425" stroke-width="3.40395"/>
<path d="M192.497 217.168C190.943 217.168 189.608 216.838 188.493 216.178C187.379 215.503 186.521 214.572 185.919 213.384C185.318 212.181 185.017 210.795 185.017 209.226C185.017 207.656 185.318 206.27 185.919 205.068C186.521 203.865 187.379 202.926 188.493 202.252C189.608 201.577 190.943 201.24 192.497 201.24C194.345 201.24 195.856 201.702 197.029 202.626C198.217 203.535 198.958 204.818 199.251 206.476H196.149C195.959 205.64 195.548 204.987 194.917 204.518C194.301 204.034 193.48 203.792 192.453 203.792C191.031 203.792 189.916 204.276 189.109 205.244C188.303 206.212 187.899 207.539 187.899 209.226C187.899 210.912 188.303 212.24 189.109 213.208C189.916 214.161 191.031 214.638 192.453 214.638C193.48 214.638 194.301 214.418 194.917 213.978C195.548 213.523 195.959 212.9 196.149 212.108H199.251C198.958 213.692 198.217 214.931 197.029 215.826C195.856 216.72 194.345 217.168 192.497 217.168ZM201.678 216.904V205.992H204.186L204.45 208.038C204.846 207.334 205.381 206.776 206.056 206.366C206.745 205.94 207.552 205.728 208.476 205.728V208.698H207.684C207.068 208.698 206.518 208.793 206.034 208.984C205.55 209.174 205.169 209.504 204.89 209.974C204.626 210.443 204.494 211.096 204.494 211.932V216.904H201.678ZM211.765 221.744L214.295 216.178H213.635L209.389 205.992H212.447L215.505 213.67L218.695 205.992H221.687L214.757 221.744H211.765ZM223.528 221.744V205.992H226.036L226.344 207.554C226.696 207.07 227.158 206.644 227.73 206.278C228.316 205.911 229.072 205.728 229.996 205.728C231.022 205.728 231.939 205.977 232.746 206.476C233.552 206.974 234.19 207.656 234.66 208.522C235.129 209.387 235.364 210.37 235.364 211.47C235.364 212.57 235.129 213.552 234.66 214.418C234.19 215.268 233.552 215.943 232.746 216.442C231.939 216.926 231.022 217.168 229.996 217.168C229.174 217.168 228.456 217.014 227.84 216.706C227.224 216.398 226.725 215.965 226.344 215.408V221.744H223.528ZM229.402 214.704C230.296 214.704 231.037 214.403 231.624 213.802C232.21 213.2 232.504 212.423 232.504 211.47C232.504 210.516 232.21 209.732 231.624 209.116C231.037 208.5 230.296 208.192 229.402 208.192C228.492 208.192 227.744 208.5 227.158 209.116C226.586 209.717 226.3 210.494 226.3 211.448C226.3 212.401 226.586 213.186 227.158 213.802C227.744 214.403 228.492 214.704 229.402 214.704ZM242.312 216.904C241.168 216.904 240.251 216.625 239.562 216.068C238.872 215.51 238.528 214.52 238.528 213.098V208.346H236.658V205.992H238.528L238.858 203.066H241.344V205.992H244.292V208.346H241.344V213.12C241.344 213.648 241.454 214.014 241.674 214.22C241.908 214.41 242.304 214.506 242.862 214.506H244.226V216.904H242.312ZM251.666 217.168C250.61 217.168 249.657 216.926 248.806 216.442C247.97 215.958 247.303 215.29 246.804 214.44C246.32 213.574 246.078 212.577 246.078 211.448C246.078 210.318 246.327 209.328 246.826 208.478C247.325 207.612 247.992 206.938 248.828 206.454C249.679 205.97 250.632 205.728 251.688 205.728C252.729 205.728 253.668 205.97 254.504 206.454C255.355 206.938 256.022 207.612 256.506 208.478C257.005 209.328 257.254 210.318 257.254 211.448C257.254 212.577 257.005 213.574 256.506 214.44C256.022 215.29 255.355 215.958 254.504 216.442C253.653 216.926 252.707 217.168 251.666 217.168ZM251.666 214.726C252.399 214.726 253.037 214.454 253.58 213.912C254.123 213.354 254.394 212.533 254.394 211.448C254.394 210.362 254.123 209.548 253.58 209.006C253.037 208.448 252.407 208.17 251.688 208.17C250.94 208.17 250.295 208.448 249.752 209.006C249.224 209.548 248.96 210.362 248.96 211.448C248.96 212.533 249.224 213.354 249.752 213.912C250.295 214.454 250.933 214.726 251.666 214.726ZM267.962 216.904L263.958 205.992H266.906L269.678 214.242L272.45 205.992H275.398L271.372 216.904H267.962ZM281.276 217.168C280.308 217.168 279.457 217.014 278.724 216.706C277.991 216.383 277.404 215.943 276.964 215.386C276.524 214.828 276.26 214.183 276.172 213.45H279.01C279.098 213.875 279.333 214.242 279.714 214.55C280.11 214.843 280.616 214.99 281.232 214.99C281.848 214.99 282.295 214.865 282.574 214.616C282.867 214.366 283.014 214.08 283.014 213.758C283.014 213.288 282.809 212.973 282.398 212.812C281.987 212.636 281.415 212.467 280.682 212.306C280.213 212.203 279.736 212.078 279.252 211.932C278.768 211.785 278.321 211.602 277.91 211.382C277.514 211.147 277.191 210.854 276.942 210.502C276.693 210.135 276.568 209.688 276.568 209.16C276.568 208.192 276.949 207.378 277.712 206.718C278.489 206.058 279.575 205.728 280.968 205.728C282.259 205.728 283.285 206.028 284.048 206.63C284.825 207.231 285.287 208.06 285.434 209.116H282.772C282.611 208.309 282.002 207.906 280.946 207.906C280.418 207.906 280.007 208.008 279.714 208.214C279.435 208.419 279.296 208.676 279.296 208.984C279.296 209.306 279.509 209.563 279.934 209.754C280.359 209.944 280.924 210.12 281.628 210.282C282.391 210.458 283.087 210.656 283.718 210.876C284.363 211.081 284.877 211.396 285.258 211.822C285.639 212.232 285.83 212.826 285.83 213.604C285.845 214.278 285.669 214.887 285.302 215.43C284.935 215.972 284.407 216.398 283.718 216.706C283.029 217.014 282.215 217.168 281.276 217.168ZM298.891 217.168C297.761 217.168 296.764 216.977 295.899 216.596C295.033 216.2 294.351 215.642 293.853 214.924C293.354 214.19 293.097 213.303 293.083 212.262H296.053C296.082 212.98 296.339 213.589 296.823 214.088C297.321 214.572 298.003 214.814 298.869 214.814C299.617 214.814 300.211 214.638 300.651 214.286C301.091 213.919 301.311 213.435 301.311 212.834C301.311 212.203 301.113 211.712 300.717 211.36C300.335 211.008 299.822 210.722 299.177 210.502C298.531 210.282 297.842 210.047 297.109 209.798C295.921 209.387 295.011 208.859 294.381 208.214C293.765 207.568 293.457 206.71 293.457 205.64C293.442 204.73 293.655 203.953 294.095 203.308C294.549 202.648 295.165 202.142 295.943 201.79C296.72 201.423 297.615 201.24 298.627 201.24C299.653 201.24 300.555 201.423 301.333 201.79C302.125 202.156 302.741 202.67 303.181 203.33C303.635 203.99 303.877 204.774 303.907 205.684H300.893C300.878 205.141 300.665 204.664 300.255 204.254C299.859 203.828 299.301 203.616 298.583 203.616C297.967 203.601 297.446 203.755 297.021 204.078C296.61 204.386 296.405 204.84 296.405 205.442C296.405 205.955 296.566 206.366 296.889 206.674C297.211 206.967 297.651 207.216 298.209 207.422C298.766 207.627 299.404 207.847 300.123 208.082C300.885 208.346 301.582 208.654 302.213 209.006C302.843 209.358 303.349 209.827 303.731 210.414C304.112 210.986 304.303 211.726 304.303 212.636C304.303 213.442 304.097 214.19 303.687 214.88C303.276 215.569 302.667 216.126 301.861 216.552C301.054 216.962 300.064 217.168 298.891 217.168ZM311.556 216.904C310.412 216.904 309.495 216.625 308.806 216.068C308.116 215.51 307.772 214.52 307.772 213.098V208.346H305.902V205.992H307.772L308.102 203.066H310.588V205.992H313.536V208.346H310.588V213.12C310.588 213.648 310.698 214.014 310.918 214.22C311.152 214.41 311.548 214.506 312.106 214.506H313.47V216.904H311.556ZM319.715 217.168C318.777 217.168 318.007 217.021 317.405 216.728C316.804 216.42 316.357 216.016 316.063 215.518C315.77 215.019 315.623 214.469 315.623 213.868C315.623 212.856 316.019 212.034 316.811 211.404C317.603 210.773 318.791 210.458 320.375 210.458H323.147V210.194C323.147 209.446 322.935 208.896 322.509 208.544C322.084 208.192 321.556 208.016 320.925 208.016C320.353 208.016 319.855 208.155 319.429 208.434C319.004 208.698 318.74 209.094 318.637 209.622H315.887C315.961 208.83 316.225 208.14 316.679 207.554C317.149 206.967 317.75 206.52 318.483 206.212C319.217 205.889 320.038 205.728 320.947 205.728C322.502 205.728 323.727 206.116 324.621 206.894C325.516 207.671 325.963 208.771 325.963 210.194V216.904H323.565L323.301 215.144C322.979 215.73 322.524 216.214 321.937 216.596C321.365 216.977 320.625 217.168 319.715 217.168ZM320.353 214.968C321.16 214.968 321.783 214.704 322.223 214.176C322.678 213.648 322.964 212.995 323.081 212.218H320.683C319.935 212.218 319.4 212.357 319.077 212.636C318.755 212.9 318.593 213.23 318.593 213.626C318.593 214.051 318.755 214.381 319.077 214.616C319.4 214.85 319.825 214.968 320.353 214.968ZM335.119 217.168C334.297 217.168 333.579 217.014 332.963 216.706C332.347 216.398 331.848 215.965 331.467 215.408L331.159 216.904H328.651V201.064H331.467V207.554C331.819 207.07 332.281 206.644 332.853 206.278C333.439 205.911 334.195 205.728 335.119 205.728C336.145 205.728 337.062 205.977 337.869 206.476C338.675 206.974 339.313 207.656 339.783 208.522C340.252 209.387 340.487 210.37 340.487 211.47C340.487 212.57 340.252 213.552 339.783 214.418C339.313 215.268 338.675 215.943 337.869 216.442C337.062 216.926 336.145 217.168 335.119 217.168ZM334.525 214.704C335.419 214.704 336.16 214.403 336.747 213.802C337.333 213.2 337.627 212.423 337.627 211.47C337.627 210.516 337.333 209.732 336.747 209.116C336.16 208.5 335.419 208.192 334.525 208.192C333.615 208.192 332.867 208.5 332.281 209.116C331.709 209.717 331.423 210.494 331.423 211.448C331.423 212.401 331.709 213.186 332.281 213.802C332.867 214.403 333.615 214.704 334.525 214.704ZM343.002 216.904V201.064H345.818V216.904H343.002ZM353.998 217.168C352.898 217.168 351.922 216.933 351.072 216.464C350.221 215.994 349.554 215.334 349.07 214.484C348.586 213.633 348.344 212.65 348.344 211.536C348.344 210.406 348.578 209.402 349.048 208.522C349.532 207.642 350.192 206.96 351.028 206.476C351.878 205.977 352.876 205.728 354.02 205.728C355.09 205.728 356.036 205.962 356.858 206.432C357.679 206.901 358.317 207.546 358.772 208.368C359.241 209.174 359.476 210.076 359.476 211.074C359.476 211.235 359.468 211.404 359.454 211.58C359.454 211.756 359.446 211.939 359.432 212.13H351.138C351.196 212.98 351.49 213.648 352.018 214.132C352.56 214.616 353.213 214.858 353.976 214.858C354.548 214.858 355.024 214.733 355.406 214.484C355.802 214.22 356.095 213.882 356.286 213.472H359.146C358.94 214.161 358.596 214.792 358.112 215.364C357.642 215.921 357.056 216.361 356.352 216.684C355.662 217.006 354.878 217.168 353.998 217.168ZM354.02 208.016C353.33 208.016 352.722 208.214 352.194 208.61C351.666 208.991 351.328 209.578 351.182 210.37H356.616C356.572 209.651 356.308 209.079 355.824 208.654C355.34 208.228 354.738 208.016 354.02 208.016ZM366.354 217.168C365.386 217.168 364.535 217.014 363.802 216.706C363.069 216.383 362.482 215.943 362.042 215.386C361.602 214.828 361.338 214.183 361.25 213.45H364.088C364.176 213.875 364.411 214.242 364.792 214.55C365.188 214.843 365.694 214.99 366.31 214.99C366.926 214.99 367.373 214.865 367.652 214.616C367.945 214.366 368.092 214.08 368.092 213.758C368.092 213.288 367.887 212.973 367.476 212.812C367.065 212.636 366.493 212.467 365.76 212.306C365.291 212.203 364.814 212.078 364.33 211.932C363.846 211.785 363.399 211.602 362.988 211.382C362.592 211.147 362.269 210.854 362.02 210.502C361.771 210.135 361.646 209.688 361.646 209.16C361.646 208.192 362.027 207.378 362.79 206.718C363.567 206.058 364.653 205.728 366.046 205.728C367.337 205.728 368.363 206.028 369.126 206.63C369.903 207.231 370.365 208.06 370.512 209.116H367.85C367.689 208.309 367.08 207.906 366.024 207.906C365.496 207.906 365.085 208.008 364.792 208.214C364.513 208.419 364.374 208.676 364.374 208.984C364.374 209.306 364.587 209.563 365.012 209.754C365.437 209.944 366.002 210.12 366.706 210.282C367.469 210.458 368.165 210.656 368.796 210.876C369.441 211.081 369.955 211.396 370.336 211.822C370.717 212.232 370.908 212.826 370.908 213.604C370.923 214.278 370.747 214.887 370.38 215.43C370.013 215.972 369.485 216.398 368.796 216.706C368.107 217.014 367.293 217.168 366.354 217.168Z" fill="white"/>
<path d="M32.5127 326.144C31.486 326.144 30.586 325.964 29.8127 325.604C29.0393 325.244 28.4327 324.73 27.9927 324.064C27.566 323.397 27.346 322.604 27.3327 321.684H29.5727C29.586 322.43 29.846 323.064 30.3527 323.584C30.8593 324.104 31.5727 324.364 32.4927 324.364C33.306 324.364 33.9393 324.17 34.3927 323.784C34.8593 323.384 35.0927 322.877 35.0927 322.264C35.0927 321.77 34.9793 321.37 34.7527 321.064C34.5393 320.757 34.2393 320.504 33.8527 320.304C33.4793 320.104 33.046 319.924 32.5527 319.764C32.0593 319.604 31.5393 319.43 30.9927 319.244C29.9127 318.884 29.0993 318.417 28.5527 317.844C28.0193 317.27 27.7527 316.517 27.7527 315.584C27.7393 314.797 27.9193 314.11 28.2927 313.524C28.6793 312.937 29.2127 312.484 29.8927 312.164C30.586 311.83 31.3927 311.664 32.3127 311.664C33.2193 311.664 34.0127 311.83 34.6927 312.164C35.386 312.497 35.926 312.964 36.3127 313.564C36.6993 314.15 36.8993 314.837 36.9127 315.624H34.6727C34.6727 315.264 34.5793 314.924 34.3927 314.604C34.206 314.27 33.9327 313.997 33.5727 313.784C33.2127 313.57 32.7727 313.464 32.2527 313.464C31.586 313.45 31.0327 313.617 30.5927 313.964C30.166 314.31 29.9527 314.79 29.9527 315.404C29.9527 315.95 30.1127 316.37 30.4327 316.664C30.7527 316.957 31.1927 317.204 31.7527 317.404C32.3127 317.59 32.9527 317.81 33.6727 318.064C34.366 318.29 34.986 318.564 35.5327 318.884C36.0793 319.204 36.5127 319.624 36.8327 320.144C37.166 320.664 37.3327 321.324 37.3327 322.124C37.3327 322.83 37.1527 323.49 36.7927 324.104C36.4327 324.704 35.8927 325.197 35.1727 325.584C34.4527 325.957 33.566 326.144 32.5127 326.144ZM43.7305 325.904C42.7571 325.904 41.9838 325.67 41.4105 325.204C40.8371 324.724 40.5505 323.877 40.5505 322.664V317.764H38.8505V315.984H40.5505L40.8105 313.464H42.6705V315.984H45.4705V317.764H42.6705V322.664C42.6705 323.21 42.7838 323.59 43.0105 323.804C43.2505 324.004 43.6571 324.104 44.2305 324.104H45.3705V325.904H43.7305ZM51.0164 326.144C50.1764 326.144 49.4831 326.004 48.9364 325.724C48.3897 325.444 47.9831 325.077 47.7164 324.624C47.4497 324.157 47.3164 323.65 47.3164 323.104C47.3164 322.144 47.6897 321.384 48.4364 320.824C49.1831 320.264 50.2497 319.984 51.6364 319.984H54.2364V319.804C54.2364 319.03 54.0231 318.45 53.5964 318.064C53.1831 317.677 52.6431 317.484 51.9764 317.484C51.3897 317.484 50.8764 317.63 50.4364 317.924C50.0097 318.204 49.7497 318.624 49.6564 319.184H47.5364C47.6031 318.464 47.8431 317.85 48.2564 317.344C48.6831 316.824 49.2164 316.43 49.8564 316.164C50.5097 315.884 51.2231 315.744 51.9964 315.744C53.3831 315.744 54.4564 316.11 55.2164 316.844C55.9764 317.564 56.3564 318.55 56.3564 319.804V325.904H54.5164L54.3364 324.204C54.0564 324.75 53.6497 325.21 53.1164 325.584C52.5831 325.957 51.8831 326.144 51.0164 326.144ZM51.4364 324.424C52.0097 324.424 52.4897 324.29 52.8764 324.024C53.2764 323.744 53.5831 323.377 53.7964 322.924C54.0231 322.47 54.1631 321.97 54.2164 321.424H51.8564C51.0164 321.424 50.4164 321.57 50.0564 321.864C49.7097 322.157 49.5364 322.524 49.5364 322.964C49.5364 323.417 49.7031 323.777 50.0364 324.044C50.3831 324.297 50.8497 324.424 51.4364 324.424ZM64.4083 326.144C63.6349 326.144 62.9483 325.99 62.3483 325.684C61.7616 325.377 61.2949 324.944 60.9483 324.384L60.7283 325.904H58.8283V311.504H60.9483V317.524C61.2683 317.057 61.7083 316.644 62.2683 316.284C62.8283 315.924 63.5483 315.744 64.4283 315.744C65.3883 315.744 66.2349 315.97 66.9683 316.424C67.7016 316.877 68.2749 317.497 68.6883 318.284C69.1149 319.07 69.3283 319.964 69.3283 320.964C69.3283 321.964 69.1149 322.857 68.6883 323.644C68.2749 324.417 67.7016 325.03 66.9683 325.484C66.2349 325.924 65.3816 326.144 64.4083 326.144ZM64.0483 324.304C64.9549 324.304 65.7016 323.997 66.2883 323.384C66.8749 322.757 67.1683 321.944 67.1683 320.944C67.1683 320.29 67.0349 319.71 66.7683 319.204C66.5016 318.697 66.1349 318.304 65.6683 318.024C65.2016 317.73 64.6616 317.584 64.0483 317.584C63.1416 317.584 62.3949 317.897 61.8083 318.524C61.2349 319.15 60.9483 319.957 60.9483 320.944C60.9483 321.944 61.2349 322.757 61.8083 323.384C62.3949 323.997 63.1416 324.304 64.0483 324.304ZM71.6213 325.904V311.504H73.7413V325.904H71.6213ZM81.0659 326.144C80.0926 326.144 79.2259 325.93 78.4659 325.504C77.7193 325.064 77.1326 324.457 76.7059 323.684C76.2793 322.91 76.0659 322.01 76.0659 320.984C76.0659 319.944 76.2726 319.03 76.6859 318.244C77.1126 317.457 77.6993 316.844 78.4459 316.404C79.2059 315.964 80.0859 315.744 81.0859 315.744C82.0593 315.744 82.9059 315.964 83.6259 316.404C84.3459 316.83 84.9059 317.404 85.3059 318.124C85.7059 318.844 85.9059 319.637 85.9059 320.504C85.9059 320.637 85.8993 320.784 85.8859 320.944C85.8859 321.09 85.8793 321.257 85.8659 321.444H78.1459C78.2126 322.404 78.5259 323.137 79.0859 323.644C79.6593 324.137 80.3193 324.384 81.0659 324.384C81.6659 324.384 82.1659 324.25 82.5659 323.984C82.9793 323.704 83.2859 323.33 83.4859 322.864H85.6059C85.3393 323.797 84.8059 324.577 84.0059 325.204C83.2193 325.83 82.2393 326.144 81.0659 326.144ZM81.0659 317.484C80.3593 317.484 79.7326 317.697 79.1859 318.124C78.6393 318.537 78.3059 319.164 78.1859 320.004H83.7859C83.7459 319.23 83.4726 318.617 82.9659 318.164C82.4593 317.71 81.8259 317.484 81.0659 317.484ZM92.8056 326.144C91.8323 326.144 90.959 325.924 90.1856 325.484C89.4256 325.044 88.8256 324.437 88.3856 323.664C87.959 322.877 87.7456 321.97 87.7456 320.944C87.7456 319.917 87.959 319.017 88.3856 318.244C88.8256 317.457 89.4256 316.844 90.1856 316.404C90.959 315.964 91.8323 315.744 92.8056 315.744C94.0323 315.744 95.059 316.064 95.8856 316.704C96.7256 317.344 97.2656 318.21 97.5056 319.304H95.2856C95.1523 318.757 94.859 318.33 94.4056 318.024C93.9523 317.717 93.419 317.564 92.8056 317.564C92.2856 317.564 91.8056 317.697 91.3656 317.964C90.9256 318.217 90.5723 318.597 90.3056 319.104C90.039 319.597 89.9056 320.21 89.9056 320.944C89.9056 321.677 90.039 322.297 90.3056 322.804C90.5723 323.297 90.9256 323.677 91.3656 323.944C91.8056 324.21 92.2856 324.344 92.8056 324.344C93.419 324.344 93.9523 324.19 94.4056 323.884C94.859 323.577 95.1523 323.144 95.2856 322.584H97.5056C97.279 323.65 96.7456 324.51 95.9056 325.164C95.0656 325.817 94.0323 326.144 92.8056 326.144ZM104.445 326.144C103.498 326.144 102.645 325.93 101.885 325.504C101.138 325.064 100.545 324.457 100.105 323.684C99.6648 322.897 99.4448 321.984 99.4448 320.944C99.4448 319.904 99.6648 318.997 100.105 318.224C100.558 317.437 101.165 316.83 101.925 316.404C102.685 315.964 103.532 315.744 104.465 315.744C105.412 315.744 106.258 315.964 107.005 316.404C107.765 316.83 108.365 317.437 108.805 318.224C109.258 318.997 109.485 319.904 109.485 320.944C109.485 321.984 109.258 322.897 108.805 323.684C108.365 324.457 107.765 325.064 107.005 325.504C106.245 325.93 105.392 326.144 104.445 326.144ZM104.445 324.324C104.952 324.324 105.418 324.197 105.845 323.944C106.285 323.69 106.638 323.317 106.905 322.824C107.172 322.317 107.305 321.69 107.305 320.944C107.305 320.197 107.172 319.577 106.905 319.084C106.652 318.577 106.305 318.197 105.865 317.944C105.438 317.69 104.972 317.564 104.465 317.564C103.958 317.564 103.485 317.69 103.045 317.944C102.618 318.197 102.272 318.577 102.005 319.084C101.738 319.577 101.605 320.197 101.605 320.944C101.605 321.69 101.738 322.317 102.005 322.824C102.272 323.317 102.618 323.69 103.045 323.944C103.472 324.197 103.938 324.324 104.445 324.324ZM112.978 314.104C112.578 314.104 112.244 313.984 111.978 313.744C111.724 313.49 111.598 313.177 111.598 312.804C111.598 312.43 111.724 312.124 111.978 311.884C112.244 311.63 112.578 311.504 112.978 311.504C113.378 311.504 113.704 311.63 113.958 311.884C114.224 312.124 114.358 312.43 114.358 312.804C114.358 313.177 114.224 313.49 113.958 313.744C113.704 313.984 113.378 314.104 112.978 314.104ZM111.918 325.904V315.984H114.038V325.904H111.918ZM116.836 325.904V315.984H118.716L118.876 317.724C119.183 317.11 119.629 316.63 120.216 316.284C120.816 315.924 121.503 315.744 122.276 315.744C123.476 315.744 124.416 316.117 125.096 316.864C125.789 317.61 126.136 318.724 126.136 320.204V325.904H124.036V320.424C124.036 318.504 123.249 317.544 121.676 317.544C120.889 317.544 120.236 317.824 119.716 318.384C119.209 318.944 118.956 319.744 118.956 320.784V325.904H116.836ZM132.593 326.144C131.34 326.144 130.306 325.837 129.493 325.224C128.68 324.61 128.213 323.797 128.093 322.784H130.233C130.34 323.237 130.593 323.63 130.993 323.964C131.393 324.284 131.92 324.444 132.573 324.444C133.213 324.444 133.68 324.31 133.973 324.044C134.266 323.777 134.413 323.47 134.413 323.124C134.413 322.617 134.206 322.277 133.793 322.104C133.393 321.917 132.833 321.75 132.113 321.604C131.553 321.484 130.993 321.324 130.433 321.124C129.886 320.924 129.426 320.644 129.053 320.284C128.693 319.91 128.513 319.41 128.513 318.784C128.513 317.917 128.846 317.197 129.513 316.624C130.18 316.037 131.113 315.744 132.313 315.744C133.42 315.744 134.313 316.01 134.993 316.544C135.686 317.077 136.093 317.83 136.213 318.804H134.173C134.106 318.377 133.906 318.044 133.573 317.804C133.253 317.564 132.82 317.444 132.273 317.444C131.74 317.444 131.326 317.557 131.033 317.784C130.74 317.997 130.593 318.277 130.593 318.624C130.593 318.97 130.793 319.244 131.193 319.444C131.606 319.644 132.146 319.824 132.813 319.984C133.48 320.13 134.093 320.304 134.653 320.504C135.226 320.69 135.686 320.97 136.033 321.344C136.38 321.717 136.553 322.264 136.553 322.984C136.566 323.89 136.213 324.644 135.493 325.244C134.786 325.844 133.82 326.144 132.593 326.144Z" fill="#85B0F0"/>
<circle cx="7.5" cy="318.404" r="7.5" fill="#85B0F0"/>
<path d="M169.717 402.904V388.904H174.257C175.897 388.904 177.244 389.19 178.297 389.764C179.364 390.337 180.15 391.15 180.657 392.204C181.177 393.244 181.437 394.484 181.437 395.924C181.437 397.35 181.177 398.59 180.657 399.644C180.15 400.684 179.364 401.49 178.297 402.064C177.244 402.624 175.897 402.904 174.257 402.904H169.717ZM171.837 401.104H174.177C175.444 401.104 176.444 400.897 177.177 400.484C177.924 400.07 178.457 399.477 178.777 398.704C179.11 397.93 179.277 397.004 179.277 395.924C179.277 394.844 179.11 393.91 178.777 393.124C178.457 392.337 177.924 391.737 177.177 391.324C176.444 390.897 175.444 390.684 174.177 390.684H171.837V401.104ZM188.339 403.144C187.366 403.144 186.499 402.93 185.739 402.504C184.993 402.064 184.406 401.457 183.979 400.684C183.553 399.91 183.339 399.01 183.339 397.984C183.339 396.944 183.546 396.03 183.959 395.244C184.386 394.457 184.973 393.844 185.719 393.404C186.479 392.964 187.359 392.744 188.359 392.744C189.333 392.744 190.179 392.964 190.899 393.404C191.619 393.83 192.179 394.404 192.579 395.124C192.979 395.844 193.179 396.637 193.179 397.504C193.179 397.637 193.173 397.784 193.159 397.944C193.159 398.09 193.153 398.257 193.139 398.444H185.419C185.486 399.404 185.799 400.137 186.359 400.644C186.933 401.137 187.593 401.384 188.339 401.384C188.939 401.384 189.439 401.25 189.839 400.984C190.253 400.704 190.559 400.33 190.759 399.864H192.879C192.613 400.797 192.079 401.577 191.279 402.204C190.493 402.83 189.513 403.144 188.339 403.144ZM188.339 394.484C187.633 394.484 187.006 394.697 186.459 395.124C185.913 395.537 185.579 396.164 185.459 397.004H191.059C191.019 396.23 190.746 395.617 190.239 395.164C189.733 394.71 189.099 394.484 188.339 394.484ZM200.079 403.144C199.106 403.144 198.232 402.924 197.459 402.484C196.699 402.044 196.099 401.437 195.659 400.664C195.232 399.877 195.019 398.97 195.019 397.944C195.019 396.917 195.232 396.017 195.659 395.244C196.099 394.457 196.699 393.844 197.459 393.404C198.232 392.964 199.106 392.744 200.079 392.744C201.306 392.744 202.332 393.064 203.159 393.704C203.999 394.344 204.539 395.21 204.779 396.304H202.559C202.426 395.757 202.132 395.33 201.679 395.024C201.226 394.717 200.692 394.564 200.079 394.564C199.559 394.564 199.079 394.697 198.639 394.964C198.199 395.217 197.846 395.597 197.579 396.104C197.312 396.597 197.179 397.21 197.179 397.944C197.179 398.677 197.312 399.297 197.579 399.804C197.846 400.297 198.199 400.677 198.639 400.944C199.079 401.21 199.559 401.344 200.079 401.344C200.692 401.344 201.226 401.19 201.679 400.884C202.132 400.577 202.426 400.144 202.559 399.584H204.779C204.552 400.65 204.019 401.51 203.179 402.164C202.339 402.817 201.306 403.144 200.079 403.144ZM211.718 403.144C210.745 403.144 209.878 402.93 209.118 402.504C208.372 402.064 207.785 401.457 207.358 400.684C206.932 399.91 206.718 399.01 206.718 397.984C206.718 396.944 206.925 396.03 207.338 395.244C207.765 394.457 208.352 393.844 209.098 393.404C209.858 392.964 210.738 392.744 211.738 392.744C212.712 392.744 213.558 392.964 214.278 393.404C214.998 393.83 215.558 394.404 215.958 395.124C216.358 395.844 216.558 396.637 216.558 397.504C216.558 397.637 216.552 397.784 216.538 397.944C216.538 398.09 216.532 398.257 216.518 398.444H208.798C208.865 399.404 209.178 400.137 209.738 400.644C210.312 401.137 210.972 401.384 211.718 401.384C212.318 401.384 212.818 401.25 213.218 400.984C213.632 400.704 213.938 400.33 214.138 399.864H216.258C215.992 400.797 215.458 401.577 214.658 402.204C213.872 402.83 212.892 403.144 211.718 403.144ZM211.718 394.484C211.012 394.484 210.385 394.697 209.838 395.124C209.292 395.537 208.958 396.164 208.838 397.004H214.438C214.398 396.23 214.125 395.617 213.618 395.164C213.112 394.71 212.478 394.484 211.718 394.484ZM218.758 402.904V392.984H220.638L220.798 394.724C221.105 394.11 221.551 393.63 222.138 393.284C222.738 392.924 223.425 392.744 224.198 392.744C225.398 392.744 226.338 393.117 227.018 393.864C227.711 394.61 228.058 395.724 228.058 397.204V402.904H225.958V397.424C225.958 395.504 225.171 394.544 223.598 394.544C222.811 394.544 222.158 394.824 221.638 395.384C221.131 395.944 220.878 396.744 220.878 397.784V402.904H218.758ZM234.715 402.904C233.742 402.904 232.968 402.67 232.395 402.204C231.822 401.724 231.535 400.877 231.535 399.664V394.764H229.835V392.984H231.535L231.795 390.464H233.655V392.984H236.455V394.764H233.655V399.664C233.655 400.21 233.768 400.59 233.995 400.804C234.235 401.004 234.642 401.104 235.215 401.104H236.355V402.904H234.715ZM238.641 402.904V392.984H240.541L240.721 394.864C241.067 394.21 241.547 393.697 242.161 393.324C242.787 392.937 243.541 392.744 244.421 392.744V394.964H243.841C243.254 394.964 242.727 395.064 242.261 395.264C241.807 395.45 241.441 395.777 241.161 396.244C240.894 396.697 240.761 397.33 240.761 398.144V402.904H238.641ZM247.438 391.104C247.038 391.104 246.705 390.984 246.438 390.744C246.185 390.49 246.058 390.177 246.058 389.804C246.058 389.43 246.185 389.124 246.438 388.884C246.705 388.63 247.038 388.504 247.438 388.504C247.838 388.504 248.165 388.63 248.418 388.884C248.685 389.124 248.818 389.43 248.818 389.804C248.818 390.177 248.685 390.49 248.418 390.744C248.165 390.984 247.838 391.104 247.438 391.104ZM246.378 402.904V392.984H248.498V402.904H246.378ZM251.297 402.904V388.504H253.417V402.904H251.297ZM257.302 391.104C256.902 391.104 256.568 390.984 256.302 390.744C256.048 390.49 255.922 390.177 255.922 389.804C255.922 389.43 256.048 389.124 256.302 388.884C256.568 388.63 256.902 388.504 257.302 388.504C257.702 388.504 258.028 388.63 258.282 388.884C258.548 389.124 258.682 389.43 258.682 389.804C258.682 390.177 258.548 390.49 258.282 390.744C258.028 390.984 257.702 391.104 257.302 391.104ZM256.242 402.904V392.984H258.362V402.904H256.242ZM260.5 402.904V401.184L265.8 394.744H260.58V392.984H268.2V394.704L262.86 401.144H268.3V402.904H260.5ZM275.117 403.144C274.143 403.144 273.277 402.93 272.517 402.504C271.77 402.064 271.183 401.457 270.757 400.684C270.33 399.91 270.117 399.01 270.117 397.984C270.117 396.944 270.323 396.03 270.737 395.244C271.163 394.457 271.75 393.844 272.497 393.404C273.257 392.964 274.137 392.744 275.137 392.744C276.11 392.744 276.957 392.964 277.677 393.404C278.397 393.83 278.957 394.404 279.357 395.124C279.757 395.844 279.957 396.637 279.957 397.504C279.957 397.637 279.95 397.784 279.937 397.944C279.937 398.09 279.93 398.257 279.917 398.444H272.197C272.263 399.404 272.577 400.137 273.137 400.644C273.71 401.137 274.37 401.384 275.117 401.384C275.717 401.384 276.217 401.25 276.617 400.984C277.03 400.704 277.337 400.33 277.537 399.864H279.657C279.39 400.797 278.857 401.577 278.057 402.204C277.27 402.83 276.29 403.144 275.117 403.144ZM275.117 394.484C274.41 394.484 273.783 394.697 273.237 395.124C272.69 395.537 272.357 396.164 272.237 397.004H277.837C277.797 396.23 277.523 395.617 277.017 395.164C276.51 394.71 275.877 394.484 275.117 394.484ZM286.676 403.144C285.716 403.144 284.87 402.917 284.136 402.464C283.403 402.01 282.83 401.39 282.416 400.604C282.003 399.817 281.796 398.924 281.796 397.924C281.796 396.924 282.003 396.037 282.416 395.264C282.83 394.477 283.403 393.864 284.136 393.424C284.883 392.97 285.736 392.744 286.696 392.744C287.483 392.744 288.17 392.897 288.756 393.204C289.356 393.51 289.823 393.944 290.156 394.504V388.504H292.276V402.904H290.376L290.156 401.364C289.836 401.83 289.396 402.244 288.836 402.604C288.276 402.964 287.556 403.144 286.676 403.144ZM287.056 401.304C287.963 401.304 288.703 400.99 289.276 400.364C289.863 399.737 290.156 398.93 290.156 397.944C290.156 396.944 289.863 396.137 289.276 395.524C288.703 394.897 287.963 394.584 287.056 394.584C286.15 394.584 285.403 394.897 284.816 395.524C284.23 396.137 283.936 396.944 283.936 397.944C283.936 398.597 284.07 399.177 284.336 399.684C284.603 400.19 284.97 400.59 285.436 400.884C285.916 401.164 286.456 401.304 287.056 401.304ZM304.688 403.144C303.662 403.144 302.762 402.964 301.988 402.604C301.215 402.244 300.608 401.73 300.168 401.064C299.742 400.397 299.522 399.604 299.508 398.684H301.748C301.762 399.43 302.022 400.064 302.528 400.584C303.035 401.104 303.748 401.364 304.668 401.364C305.482 401.364 306.115 401.17 306.568 400.784C307.035 400.384 307.268 399.877 307.268 399.264C307.268 398.77 307.155 398.37 306.928 398.064C306.715 397.757 306.415 397.504 306.028 397.304C305.655 397.104 305.222 396.924 304.728 396.764C304.235 396.604 303.715 396.43 303.168 396.244C302.088 395.884 301.275 395.417 300.728 394.844C300.195 394.27 299.928 393.517 299.928 392.584C299.915 391.797 300.095 391.11 300.468 390.524C300.855 389.937 301.388 389.484 302.068 389.164C302.762 388.83 303.568 388.664 304.488 388.664C305.395 388.664 306.188 388.83 306.868 389.164C307.562 389.497 308.102 389.964 308.488 390.564C308.875 391.15 309.075 391.837 309.088 392.624H306.848C306.848 392.264 306.755 391.924 306.568 391.604C306.382 391.27 306.108 390.997 305.748 390.784C305.388 390.57 304.948 390.464 304.428 390.464C303.762 390.45 303.208 390.617 302.768 390.964C302.342 391.31 302.128 391.79 302.128 392.404C302.128 392.95 302.288 393.37 302.608 393.664C302.928 393.957 303.368 394.204 303.928 394.404C304.488 394.59 305.128 394.81 305.848 395.064C306.542 395.29 307.162 395.564 307.708 395.884C308.255 396.204 308.688 396.624 309.008 397.144C309.342 397.664 309.508 398.324 309.508 399.124C309.508 399.83 309.328 400.49 308.968 401.104C308.608 401.704 308.068 402.197 307.348 402.584C306.628 402.957 305.742 403.144 304.688 403.144ZM315.906 402.904C314.933 402.904 314.16 402.67 313.586 402.204C313.013 401.724 312.726 400.877 312.726 399.664V394.764H311.026V392.984H312.726L312.986 390.464H314.846V392.984H317.646V394.764H314.846V399.664C314.846 400.21 314.96 400.59 315.186 400.804C315.426 401.004 315.833 401.104 316.406 401.104H317.546V402.904H315.906ZM323.192 403.144C322.352 403.144 321.659 403.004 321.112 402.724C320.566 402.444 320.159 402.077 319.892 401.624C319.626 401.157 319.492 400.65 319.492 400.104C319.492 399.144 319.866 398.384 320.612 397.824C321.359 397.264 322.426 396.984 323.812 396.984H326.412V396.804C326.412 396.03 326.199 395.45 325.772 395.064C325.359 394.677 324.819 394.484 324.152 394.484C323.566 394.484 323.052 394.63 322.612 394.924C322.186 395.204 321.926 395.624 321.832 396.184H319.712C319.779 395.464 320.019 394.85 320.432 394.344C320.859 393.824 321.392 393.43 322.032 393.164C322.686 392.884 323.399 392.744 324.172 392.744C325.559 392.744 326.632 393.11 327.392 393.844C328.152 394.564 328.532 395.55 328.532 396.804V402.904H326.692L326.512 401.204C326.232 401.75 325.826 402.21 325.292 402.584C324.759 402.957 324.059 403.144 323.192 403.144ZM323.612 401.424C324.186 401.424 324.666 401.29 325.052 401.024C325.452 400.744 325.759 400.377 325.972 399.924C326.199 399.47 326.339 398.97 326.392 398.424H324.032C323.192 398.424 322.592 398.57 322.232 398.864C321.886 399.157 321.712 399.524 321.712 399.964C321.712 400.417 321.879 400.777 322.212 401.044C322.559 401.297 323.026 401.424 323.612 401.424ZM336.584 403.144C335.811 403.144 335.124 402.99 334.524 402.684C333.937 402.377 333.471 401.944 333.124 401.384L332.904 402.904H331.004V388.504H333.124V394.524C333.444 394.057 333.884 393.644 334.444 393.284C335.004 392.924 335.724 392.744 336.604 392.744C337.564 392.744 338.411 392.97 339.144 393.424C339.877 393.877 340.451 394.497 340.864 395.284C341.291 396.07 341.504 396.964 341.504 397.964C341.504 398.964 341.291 399.857 340.864 400.644C340.451 401.417 339.877 402.03 339.144 402.484C338.411 402.924 337.557 403.144 336.584 403.144ZM336.224 401.304C337.131 401.304 337.877 400.997 338.464 400.384C339.051 399.757 339.344 398.944 339.344 397.944C339.344 397.29 339.211 396.71 338.944 396.204C338.677 395.697 338.311 395.304 337.844 395.024C337.377 394.73 336.837 394.584 336.224 394.584C335.317 394.584 334.571 394.897 333.984 395.524C333.411 396.15 333.124 396.957 333.124 397.944C333.124 398.944 333.411 399.757 333.984 400.384C334.571 400.997 335.317 401.304 336.224 401.304ZM343.797 402.904V388.504H345.917V402.904H343.797ZM353.242 403.144C352.268 403.144 351.402 402.93 350.642 402.504C349.895 402.064 349.308 401.457 348.882 400.684C348.455 399.91 348.242 399.01 348.242 397.984C348.242 396.944 348.448 396.03 348.862 395.244C349.288 394.457 349.875 393.844 350.622 393.404C351.382 392.964 352.262 392.744 353.262 392.744C354.235 392.744 355.082 392.964 355.802 393.404C356.522 393.83 357.082 394.404 357.482 395.124C357.882 395.844 358.082 396.637 358.082 397.504C358.082 397.637 358.075 397.784 358.062 397.944C358.062 398.09 358.055 398.257 358.042 398.444H350.322C350.388 399.404 350.702 400.137 351.262 400.644C351.835 401.137 352.495 401.384 353.242 401.384C353.842 401.384 354.342 401.25 354.742 400.984C355.155 400.704 355.462 400.33 355.662 399.864H357.782C357.515 400.797 356.982 401.577 356.182 402.204C355.395 402.83 354.415 403.144 353.242 403.144ZM353.242 394.484C352.535 394.484 351.908 394.697 351.362 395.124C350.815 395.537 350.482 396.164 350.362 397.004H355.962C355.922 396.23 355.648 395.617 355.142 395.164C354.635 394.71 354.002 394.484 353.242 394.484ZM364.981 403.144C364.008 403.144 363.135 402.924 362.361 402.484C361.601 402.044 361.001 401.437 360.561 400.664C360.135 399.877 359.921 398.97 359.921 397.944C359.921 396.917 360.135 396.017 360.561 395.244C361.001 394.457 361.601 393.844 362.361 393.404C363.135 392.964 364.008 392.744 364.981 392.744C366.208 392.744 367.235 393.064 368.061 393.704C368.901 394.344 369.441 395.21 369.681 396.304H367.461C367.328 395.757 367.035 395.33 366.581 395.024C366.128 394.717 365.595 394.564 364.981 394.564C364.461 394.564 363.981 394.697 363.541 394.964C363.101 395.217 362.748 395.597 362.481 396.104C362.215 396.597 362.081 397.21 362.081 397.944C362.081 398.677 362.215 399.297 362.481 399.804C362.748 400.297 363.101 400.677 363.541 400.944C363.981 401.21 364.461 401.344 364.981 401.344C365.595 401.344 366.128 401.19 366.581 400.884C367.035 400.577 367.328 400.144 367.461 399.584H369.681C369.455 400.65 368.921 401.51 368.081 402.164C367.241 402.817 366.208 403.144 364.981 403.144ZM376.621 403.144C375.674 403.144 374.821 402.93 374.061 402.504C373.314 402.064 372.721 401.457 372.281 400.684C371.841 399.897 371.621 398.984 371.621 397.944C371.621 396.904 371.841 395.997 372.281 395.224C372.734 394.437 373.341 393.83 374.101 393.404C374.861 392.964 375.707 392.744 376.641 392.744C377.587 392.744 378.434 392.964 379.181 393.404C379.941 393.83 380.541 394.437 380.981 395.224C381.434 395.997 381.661 396.904 381.661 397.944C381.661 398.984 381.434 399.897 380.981 400.684C380.541 401.457 379.941 402.064 379.181 402.504C378.421 402.93 377.567 403.144 376.621 403.144ZM376.621 401.324C377.127 401.324 377.594 401.197 378.021 400.944C378.461 400.69 378.814 400.317 379.081 399.824C379.347 399.317 379.481 398.69 379.481 397.944C379.481 397.197 379.347 396.577 379.081 396.084C378.827 395.577 378.481 395.197 378.041 394.944C377.614 394.69 377.147 394.564 376.641 394.564C376.134 394.564 375.661 394.69 375.221 394.944C374.794 395.197 374.447 395.577 374.181 396.084C373.914 396.577 373.781 397.197 373.781 397.944C373.781 398.69 373.914 399.317 374.181 399.824C374.447 400.317 374.794 400.69 375.221 400.944C375.647 401.197 376.114 401.324 376.621 401.324ZM385.153 391.104C384.753 391.104 384.42 390.984 384.153 390.744C383.9 390.49 383.773 390.177 383.773 389.804C383.773 389.43 383.9 389.124 384.153 388.884C384.42 388.63 384.753 388.504 385.153 388.504C385.553 388.504 385.88 388.63 386.133 388.884C386.4 389.124 386.533 389.43 386.533 389.804C386.533 390.177 386.4 390.49 386.133 390.744C385.88 390.984 385.553 391.104 385.153 391.104ZM384.093 402.904V392.984H386.213V402.904H384.093ZM389.012 402.904V392.984H390.892L391.052 394.724C391.359 394.11 391.805 393.63 392.392 393.284C392.992 392.924 393.679 392.744 394.452 392.744C395.652 392.744 396.592 393.117 397.272 393.864C397.965 394.61 398.312 395.724 398.312 397.204V402.904H396.212V397.424C396.212 395.504 395.425 394.544 393.852 394.544C393.065 394.544 392.412 394.824 391.892 395.384C391.385 395.944 391.132 396.744 391.132 397.784V402.904H389.012ZM404.769 403.144C403.515 403.144 402.482 402.837 401.669 402.224C400.855 401.61 400.389 400.797 400.269 399.784H402.409C402.515 400.237 402.769 400.63 403.169 400.964C403.569 401.284 404.095 401.444 404.749 401.444C405.389 401.444 405.855 401.31 406.149 401.044C406.442 400.777 406.589 400.47 406.589 400.124C406.589 399.617 406.382 399.277 405.969 399.104C405.569 398.917 405.009 398.75 404.289 398.604C403.729 398.484 403.169 398.324 402.609 398.124C402.062 397.924 401.602 397.644 401.229 397.284C400.869 396.91 400.689 396.41 400.689 395.784C400.689 394.917 401.022 394.197 401.689 393.624C402.355 393.037 403.289 392.744 404.489 392.744C405.595 392.744 406.489 393.01 407.169 393.544C407.862 394.077 408.269 394.83 408.389 395.804H406.349C406.282 395.377 406.082 395.044 405.749 394.804C405.429 394.564 404.995 394.444 404.449 394.444C403.915 394.444 403.502 394.557 403.209 394.784C402.915 394.997 402.769 395.277 402.769 395.624C402.769 395.97 402.969 396.244 403.369 396.444C403.782 396.644 404.322 396.824 404.989 396.984C405.655 397.13 406.269 397.304 406.829 397.504C407.402 397.69 407.862 397.97 408.209 398.344C408.555 398.717 408.729 399.264 408.729 399.984C408.742 400.89 408.389 401.644 407.669 402.244C406.962 402.844 405.995 403.144 404.769 403.144Z" fill="#E18DD4"/>
<circle cx="149.5" cy="395.404" r="7.5" fill="#E18DD4"/>
<path d="M461.701 98.24C460.314 98.24 459.114 97.94 458.101 97.34C457.101 96.7267 456.328 95.88 455.781 94.8C455.234 93.7067 454.961 92.4467 454.961 91.02C454.961 89.58 455.234 88.32 455.781 87.24C456.328 86.1467 457.101 85.2933 458.101 84.68C459.114 84.0667 460.314 83.76 461.701 83.76C463.341 83.76 464.681 84.16 465.721 84.96C466.761 85.76 467.421 86.88 467.701 88.32H465.341C465.154 87.5067 464.754 86.86 464.141 86.38C463.528 85.9 462.708 85.66 461.681 85.66C460.281 85.66 459.174 86.14 458.361 87.1C457.548 88.0467 457.141 89.3533 457.141 91.02C457.141 92.6733 457.548 93.9733 458.361 94.92C459.174 95.8667 460.281 96.34 461.681 96.34C462.708 96.34 463.528 96.1133 464.141 95.66C464.754 95.2067 465.154 94.5867 465.341 93.8H467.701C467.421 95.1867 466.761 96.2733 465.721 97.06C464.681 97.8467 463.341 98.24 461.701 98.24ZM469.951 98V88.08H471.851L472.031 89.96C472.378 89.3067 472.858 88.7933 473.471 88.42C474.098 88.0333 474.851 87.84 475.731 87.84V90.06H475.151C474.565 90.06 474.038 90.16 473.571 90.36C473.118 90.5467 472.751 90.8733 472.471 91.34C472.205 91.7933 472.071 92.4267 472.071 93.24V98H469.951ZM478.709 102.4L481.089 97.18H480.509L476.589 88.08H478.889L481.929 95.42L485.109 88.08H487.349L480.949 102.4H478.709ZM489.092 102.4V88.08H490.992L491.212 89.62C491.532 89.1533 491.972 88.74 492.532 88.38C493.092 88.02 493.812 87.84 494.692 87.84C495.652 87.84 496.499 88.0667 497.232 88.52C497.965 88.9733 498.539 89.5933 498.952 90.38C499.379 91.1667 499.592 92.06 499.592 93.06C499.592 94.06 499.379 94.9533 498.952 95.74C498.539 96.5133 497.965 97.1267 497.232 97.58C496.499 98.02 495.645 98.24 494.672 98.24C493.899 98.24 493.212 98.0867 492.612 97.78C492.025 97.4733 491.559 97.04 491.212 96.48V102.4H489.092ZM494.312 96.4C495.219 96.4 495.965 96.0933 496.552 95.48C497.139 94.8533 497.432 94.04 497.432 93.04C497.432 92.3867 497.299 91.8067 497.032 91.3C496.765 90.7933 496.399 90.4 495.932 90.12C495.465 89.8267 494.925 89.68 494.312 89.68C493.405 89.68 492.659 89.9933 492.072 90.62C491.499 91.2467 491.212 92.0533 491.212 93.04C491.212 94.04 491.499 94.8533 492.072 95.48C492.659 96.0933 493.405 96.4 494.312 96.4ZM505.654 98C504.681 98 503.908 97.7667 503.334 97.3C502.761 96.82 502.474 95.9733 502.474 94.76V89.86H500.774V88.08H502.474L502.734 85.56H504.594V88.08H507.394V89.86H504.594V94.76C504.594 95.3067 504.708 95.6867 504.934 95.9C505.174 96.1 505.581 96.2 506.154 96.2H507.294V98H505.654ZM513.966 98.24C513.02 98.24 512.166 98.0267 511.406 97.6C510.66 97.16 510.066 96.5533 509.626 95.78C509.186 94.9933 508.966 94.08 508.966 93.04C508.966 92 509.186 91.0933 509.626 90.32C510.08 89.5333 510.686 88.9267 511.446 88.5C512.206 88.06 513.053 87.84 513.986 87.84C514.933 87.84 515.78 88.06 516.526 88.5C517.286 88.9267 517.886 89.5333 518.326 90.32C518.78 91.0933 519.006 92 519.006 93.04C519.006 94.08 518.78 94.9933 518.326 95.78C517.886 96.5533 517.286 97.16 516.526 97.6C515.766 98.0267 514.913 98.24 513.966 98.24ZM513.966 96.42C514.473 96.42 514.94 96.2933 515.366 96.04C515.806 95.7867 516.16 95.4133 516.426 94.92C516.693 94.4133 516.826 93.7867 516.826 93.04C516.826 92.2933 516.693 91.6733 516.426 91.18C516.173 90.6733 515.826 90.2933 515.386 90.04C514.96 89.7867 514.493 89.66 513.986 89.66C513.48 89.66 513.006 89.7867 512.566 90.04C512.14 90.2933 511.793 90.6733 511.526 91.18C511.26 91.6733 511.126 92.2933 511.126 93.04C511.126 93.7867 511.26 94.4133 511.526 94.92C511.793 95.4133 512.14 95.7867 512.566 96.04C512.993 96.2933 513.46 96.42 513.966 96.42Z" fill="white"/>
<circle cx="437.5" cy="90.5" r="7.5" fill="#FFF698"/>
</svg>
