<?xml version="1.0" standalone="no"?>
<!DOCTYPE svg PUBLIC "-//W3C//DTD SVG 20010904//EN"
 "http://www.w3.org/TR/2001/REC-SVG-20010904/DTD/svg10.dtd">
<svg version="1.0" xmlns="http://www.w3.org/2000/svg"
 width="621.000000pt" height="621.000000pt" viewBox="0 0 621.000000 621.000000"
 preserveAspectRatio="xMidYMid meet">
<metadata>
Created by potrace 1.14, written by Peter Selinger 2001-2017
</metadata>
<g transform="translate(0.000000,621.000000) scale(0.100000,-0.100000)"
fill="#000000" stroke="none">
<path d="M2997 6204 c-1 -1 -54 -5 -119 -8 -64 -3 -122 -8 -130 -10 -7 -3 -35
-7 -63 -10 -185 -22 -459 -90 -660 -164 -333 -123 -678 -330 -965 -577 -91
-78 -286 -282 -365 -380 -22 -28 -43 -54 -48 -60 -5 -5 -35 -48 -68 -95 -377
-530 -574 -1151 -573 -1800 0 -112 10 -300 18 -350 2 -14 7 -47 11 -75 3 -27
15 -97 26 -155 25 -131 24 -126 40 -180 7 -25 14 -54 16 -65 6 -36 102 -312
129 -372 182 -407 384 -705 673 -994 58 -58 133 -127 166 -155 33 -27 71 -59
85 -71 111 -96 346 -246 535 -343 189 -97 518 -220 653 -245 15 -3 36 -7 47
-9 133 -29 185 -39 270 -51 138 -19 277 -29 425 -29 125 0 327 11 365 20 11 2
41 6 66 8 103 10 305 54 464 102 724 215 1348 695 1751 1346 186 302 350 718
399 1018 3 19 8 42 10 50 7 26 17 88 31 205 23 195 22 495 -2 715 -28 254
-128 634 -224 845 -50 111 -111 234 -148 300 -45 80 -161 265 -172 275 -3 3
-17 21 -30 40 -98 142 -342 406 -490 531 -36 30 -67 56 -70 59 -5 5 -117 88
-190 142 -73 53 -291 179 -403 232 -243 116 -511 207 -737 250 -14 3 -47 9
-75 15 -27 5 -77 13 -110 16 -33 4 -68 9 -78 11 -54 10 -451 25 -460 18z"/>
</g>
</svg>
